<svg width="10" height="10" viewBox="0 0 10 10" fill="none" xmlns="http://www.w3.org/2000/svg">
<path d="M9.32478 3.58705C9.32478 3.44754 9.26897 3.30804 9.16853 3.20759L8.4096 2.44866C8.30915 2.34821 8.16964 2.29241 8.03013 2.29241C7.89063 2.29241 7.75112 2.34821 7.65067 2.44866L3.98996 6.11496L2.34933 4.46875C2.24888 4.3683 2.10938 4.3125 1.96987 4.3125C1.83036 4.3125 1.69085 4.3683 1.5904 4.46875L0.831473 5.22768C0.731027 5.32812 0.675223 5.46763 0.675223 5.60714C0.675223 5.74665 0.731027 5.88616 0.831473 5.98661L2.85156 8.0067L3.61049 8.76562C3.71094 8.86607 3.85045 8.92188 3.98996 8.92188C4.12946 8.92188 4.26897 8.86607 4.36942 8.76562L5.12835 8.0067L9.16853 3.96652C9.26897 3.86607 9.32478 3.72656 9.32478 3.58705Z" fill="white"/>
</svg>
