<svg width="1252" height="547" viewBox="0 0 1252 547" fill="none" xmlns="http://www.w3.org/2000/svg">
<g filter="url(#filter0_d_1_491)">
<rect x="32" y="32" width="1188" height="483" rx="6" fill="#172B4D"/>
</g>
<path d="M63.2803 58.4209C63.2803 59.583 62.9889 60.4863 62.4062 61.1309C61.8268 61.7754 61.0049 62.0977 59.9404 62.0977C58.863 62.0977 58.0345 61.7786 57.4551 61.1406C56.8789 60.4993 56.5908 59.5895 56.5908 58.4111C56.5908 57.2327 56.8805 56.3278 57.46 55.6963C58.0426 55.0648 58.8727 54.749 59.9502 54.749C61.0114 54.749 61.8317 55.0697 62.4111 55.7109C62.9906 56.3522 63.2803 57.2555 63.2803 58.4209ZM57.8311 58.4209C57.8311 59.2998 58.0085 59.9671 58.3633 60.4229C58.7181 60.8753 59.2438 61.1016 59.9404 61.1016C60.6338 61.1016 61.1562 60.877 61.5078 60.4277C61.8626 59.9785 62.04 59.3096 62.04 58.4209C62.04 57.5452 61.8643 56.8812 61.5127 56.4287C61.1644 55.9762 60.6436 55.75 59.9502 55.75C59.2503 55.75 58.7214 55.9762 58.3633 56.4287C58.0085 56.8812 57.8311 57.5452 57.8311 58.4209ZM69.8809 54.8613H71.0918L68.5918 62H67.3613L64.8711 54.8613H66.0723L67.5615 59.2998C67.6396 59.5114 67.7227 59.7848 67.8105 60.1201C67.8984 60.4521 67.9554 60.6995 67.9814 60.8623C68.0238 60.6149 68.0889 60.3285 68.1768 60.0029C68.2646 59.6774 68.3363 59.4365 68.3916 59.2803L69.8809 54.8613ZM77.0723 62H73.0342V54.8613H77.0723V55.8477H74.2012V57.791H76.8916V58.7676H74.2012V61.0088H77.0723V62ZM80.7871 58.1816H81.5977C82.1413 58.1816 82.5352 58.0807 82.7793 57.8789C83.0234 57.6771 83.1455 57.3776 83.1455 56.9805C83.1455 56.5768 83.0137 56.2871 82.75 56.1113C82.4863 55.9355 82.0892 55.8477 81.5586 55.8477H80.7871V58.1816ZM80.7871 59.1484V62H79.6201V54.8613H81.6367C82.5579 54.8613 83.2399 55.0339 83.6826 55.3789C84.1253 55.724 84.3467 56.2448 84.3467 56.9414C84.3467 57.8301 83.8844 58.4632 82.96 58.8408L84.9766 62H83.6484L81.9395 59.1484H80.7871ZM91.084 54.8613H92.2949L89.7949 62H88.5645L86.0742 54.8613H87.2754L88.7646 59.2998C88.8428 59.5114 88.9258 59.7848 89.0137 60.1201C89.1016 60.4521 89.1585 60.6995 89.1846 60.8623C89.2269 60.6149 89.292 60.3285 89.3799 60.0029C89.4678 59.6774 89.5394 59.4365 89.5947 59.2803L91.084 54.8613ZM94.2373 62V54.8613H95.4043V62H94.2373ZM102.332 62H98.2939V54.8613H102.332V55.8477H99.4609V57.791H102.151V58.7676H99.4609V61.0088H102.332V62ZM111.467 62H110.197L108.986 57.7422C108.934 57.5566 108.869 57.2897 108.791 56.9414C108.713 56.5898 108.666 56.3457 108.649 56.209C108.617 56.4173 108.563 56.6875 108.488 57.0195C108.417 57.3516 108.356 57.599 108.308 57.7617L107.126 62H105.856L104.934 58.4258L103.996 54.8613H105.188L106.208 59.0215C106.368 59.6888 106.481 60.278 106.55 60.7891C106.586 60.5124 106.639 60.2031 106.711 59.8613C106.783 59.5195 106.848 59.2428 106.906 59.0312L108.068 54.8613H109.226L110.417 59.0508C110.531 59.4382 110.651 60.0176 110.778 60.7891C110.827 60.3236 110.944 59.7311 111.13 59.0117L112.146 54.8613H113.327L111.467 62Z" fill="#CED4DA"/>
<path d="M64.5996 85.7046C64.5996 86.7837 64.2095 87.6304 63.4292 88.2446C62.6489 88.8589 61.5726 89.166 60.2002 89.166C58.8278 89.166 57.7044 88.953 56.8301 88.5269V86.6509C57.3835 86.911 57.9701 87.1157 58.5898 87.2651C59.2152 87.4146 59.7962 87.4893 60.333 87.4893C61.1188 87.4893 61.6971 87.3398 62.0679 87.041C62.4442 86.7422 62.6323 86.341 62.6323 85.8374C62.6323 85.3836 62.4608 84.999 62.1177 84.6836C61.7746 84.3682 61.0662 83.9946 59.9927 83.563C58.8859 83.1147 58.1056 82.6029 57.6519 82.0273C57.1981 81.4518 56.9712 80.7601 56.9712 79.9521C56.9712 78.9395 57.3309 78.1426 58.0503 77.5615C58.7697 76.9805 59.7354 76.6899 60.9473 76.6899C62.1094 76.6899 63.266 76.9445 64.417 77.4536L63.7861 79.0723C62.707 78.6185 61.7441 78.3916 60.8975 78.3916C60.2555 78.3916 59.7686 78.5327 59.4365 78.8149C59.1045 79.0916 58.9385 79.4596 58.9385 79.9189C58.9385 80.2344 59.0049 80.5055 59.1377 80.7324C59.2705 80.9538 59.4891 81.1641 59.7935 81.3633C60.0978 81.5625 60.6457 81.8254 61.437 82.1519C62.328 82.5226 62.981 82.8685 63.396 83.1895C63.811 83.5104 64.1154 83.8729 64.3091 84.2769C64.5028 84.6808 64.5996 85.1567 64.5996 85.7046ZM72.4854 89L72.0952 87.7217H72.0288C71.5861 88.2806 71.1406 88.6624 70.6924 88.8672C70.2441 89.0664 69.6686 89.166 68.9658 89.166C68.0638 89.166 67.3582 88.9225 66.8491 88.4355C66.3455 87.9486 66.0938 87.2596 66.0938 86.3687C66.0938 85.4224 66.4451 84.7085 67.1479 84.2271C67.8507 83.7456 68.9215 83.4827 70.3604 83.4385L71.9458 83.3887V82.8989C71.9458 82.3123 71.8075 81.8752 71.5308 81.5874C71.2596 81.2941 70.8363 81.1475 70.2607 81.1475C69.7904 81.1475 69.3394 81.2166 68.9077 81.355C68.4761 81.4933 68.061 81.6566 67.6626 81.8447L67.0317 80.4502C67.5298 80.1901 68.0749 79.9937 68.667 79.8608C69.2591 79.7225 69.818 79.6533 70.3438 79.6533C71.5114 79.6533 72.3913 79.9079 72.9834 80.417C73.5811 80.9261 73.8799 81.7257 73.8799 82.8159V89H72.4854ZM69.5801 87.6719C70.2884 87.6719 70.8556 87.4754 71.2817 87.0825C71.7134 86.6841 71.9292 86.1279 71.9292 85.4141V84.6172L70.7505 84.667C69.8319 84.7002 69.1623 84.8551 68.7417 85.1318C68.3267 85.403 68.1191 85.8208 68.1191 86.3853C68.1191 86.7948 68.2409 87.113 68.4844 87.3398C68.7279 87.5612 69.0931 87.6719 69.5801 87.6719ZM78.5532 89H76.6025V76.084H78.5532V89ZM85.3599 89.166C83.9321 89.166 82.8143 88.751 82.0063 87.9209C81.2039 87.0853 80.8027 85.937 80.8027 84.4761C80.8027 82.9764 81.1763 81.7977 81.9233 80.9399C82.6704 80.0822 83.6969 79.6533 85.0029 79.6533C86.2148 79.6533 87.1722 80.0213 87.875 80.7573C88.5778 81.4933 88.9292 82.506 88.9292 83.7954V84.8496H82.8115C82.8392 85.7406 83.0799 86.4268 83.5337 86.9082C83.9875 87.3841 84.6266 87.6221 85.4512 87.6221C85.9935 87.6221 86.4971 87.5723 86.9619 87.4727C87.4323 87.3675 87.9359 87.196 88.4727 86.958V88.5435C87.9967 88.7703 87.5153 88.9308 87.0283 89.0249C86.5413 89.119 85.9852 89.166 85.3599 89.166ZM85.0029 81.1309C84.3831 81.1309 83.8851 81.3273 83.5088 81.7202C83.138 82.1131 82.9167 82.6859 82.8447 83.4385H87.0117C87.0007 82.6803 86.818 82.1076 86.4639 81.7202C86.1097 81.3273 85.6227 81.1309 85.0029 81.1309ZM97.313 86.3853C97.313 87.2817 96.9865 87.9707 96.3335 88.4521C95.6805 88.9281 94.7453 89.166 93.5278 89.166C92.3049 89.166 91.3226 88.9806 90.5811 88.6099V86.9248C91.6602 87.4229 92.6646 87.6719 93.5942 87.6719C94.7951 87.6719 95.3955 87.3094 95.3955 86.5845C95.3955 86.3521 95.3291 86.1584 95.1963 86.0034C95.0635 85.8485 94.8449 85.688 94.5405 85.522C94.2362 85.356 93.8128 85.1678 93.2705 84.9575C92.2135 84.548 91.4969 84.1385 91.1206 83.729C90.7498 83.3195 90.5645 82.7882 90.5645 82.1353C90.5645 81.3494 90.8799 80.7407 91.5107 80.3091C92.1471 79.8719 93.0104 79.6533 94.1006 79.6533C95.1797 79.6533 96.2007 79.8719 97.1636 80.3091L96.5327 81.7783C95.5422 81.3688 94.7093 81.1641 94.0342 81.1641C93.0049 81.1641 92.4902 81.4574 92.4902 82.0439C92.4902 82.3317 92.623 82.5752 92.8887 82.7744C93.1598 82.9736 93.7464 83.2476 94.6484 83.5962C95.4066 83.8895 95.9572 84.1579 96.3003 84.4014C96.6434 84.6449 96.8979 84.9271 97.064 85.248C97.23 85.5635 97.313 85.9425 97.313 86.3853ZM105.938 89L102.451 79.8193H104.51L106.377 85.1567C106.698 86.0532 106.892 86.7782 106.958 87.3315H107.025C107.075 86.9331 107.268 86.2082 107.606 85.1567L109.474 79.8193H111.549L108.046 89H105.938ZM118.688 89L118.297 87.7217H118.231C117.788 88.2806 117.343 88.6624 116.895 88.8672C116.446 89.0664 115.871 89.166 115.168 89.166C114.266 89.166 113.56 88.9225 113.051 88.4355C112.548 87.9486 112.296 87.2596 112.296 86.3687C112.296 85.4224 112.647 84.7085 113.35 84.2271C114.053 83.7456 115.124 83.4827 116.562 83.4385L118.148 83.3887V82.8989C118.148 82.3123 118.01 81.8752 117.733 81.5874C117.462 81.2941 117.038 81.1475 116.463 81.1475C115.993 81.1475 115.542 81.2166 115.11 81.355C114.678 81.4933 114.263 81.6566 113.865 81.8447L113.234 80.4502C113.732 80.1901 114.277 79.9937 114.869 79.8608C115.461 79.7225 116.02 79.6533 116.546 79.6533C117.714 79.6533 118.593 79.9079 119.186 80.417C119.783 80.9261 120.082 81.7257 120.082 82.8159V89H118.688ZM115.782 87.6719C116.491 87.6719 117.058 87.4754 117.484 87.0825C117.916 86.6841 118.131 86.1279 118.131 85.4141V84.6172L116.953 84.667C116.034 84.7002 115.364 84.8551 114.944 85.1318C114.529 85.403 114.321 85.8208 114.321 86.3853C114.321 86.7948 114.443 87.113 114.687 87.3398C114.93 87.5612 115.295 87.6719 115.782 87.6719ZM124.755 89H122.805V76.084H124.755V89ZM134.027 89L133.753 87.7964H133.654C133.383 88.2225 132.995 88.5573 132.492 88.8008C131.994 89.0443 131.424 89.166 130.782 89.166C129.669 89.166 128.839 88.8893 128.292 88.3359C127.744 87.7826 127.47 86.9442 127.47 85.8208V79.8193H129.437V85.4805C129.437 86.1833 129.581 86.7118 129.869 87.0659C130.156 87.4146 130.607 87.5889 131.222 87.5889C132.041 87.5889 132.641 87.3454 133.023 86.8584C133.41 86.3659 133.604 85.5441 133.604 84.3931V79.8193H135.563V89H134.027ZM142.353 89.166C140.925 89.166 139.807 88.751 139 87.9209C138.197 87.0853 137.796 85.937 137.796 84.4761C137.796 82.9764 138.169 81.7977 138.917 80.9399C139.664 80.0822 140.69 79.6533 141.996 79.6533C143.208 79.6533 144.165 80.0213 144.868 80.7573C145.571 81.4933 145.922 82.506 145.922 83.7954V84.8496H139.805C139.832 85.7406 140.073 86.4268 140.527 86.9082C140.981 87.3841 141.62 87.6221 142.444 87.6221C142.987 87.6221 143.49 87.5723 143.955 87.4727C144.425 87.3675 144.929 87.196 145.466 86.958V88.5435C144.99 88.7703 144.508 88.9308 144.021 89.0249C143.535 89.119 142.978 89.166 142.353 89.166ZM141.996 81.1309C141.376 81.1309 140.878 81.3273 140.502 81.7202C140.131 82.1131 139.91 82.6859 139.838 83.4385H144.005C143.994 82.6803 143.811 82.1076 143.457 81.7202C143.103 81.3273 142.616 81.1309 141.996 81.1309Z" fill="white"/>
<g filter="url(#filter1_dd_1_491)">
<rect x="1037" y="55" width="76" height="37" rx="6" fill="#5E72E4"/>
</g>
<path d="M1059.17 79L1055.82 70.1543H1055.76C1055.78 70.3411 1055.8 70.569 1055.81 70.8379C1055.83 71.1068 1055.84 71.4007 1055.85 71.7197C1055.85 72.0342 1055.86 72.3555 1055.86 72.6836V79H1054.78V69.0059H1056.5L1059.67 77.3184H1059.71L1062.93 69.0059H1064.64V79H1063.49V72.6016C1063.49 72.3053 1063.49 72.0091 1063.5 71.7129C1063.51 71.4121 1063.52 71.1296 1063.54 70.8652C1063.55 70.5964 1063.56 70.3639 1063.58 70.168H1063.52L1060.12 79H1059.17ZM1073.66 75.2402C1073.66 75.8555 1073.58 76.4046 1073.42 76.8877C1073.26 77.3708 1073.03 77.7786 1072.73 78.1113C1072.43 78.444 1072.07 78.6992 1071.64 78.877C1071.21 79.0501 1070.73 79.1367 1070.19 79.1367C1069.69 79.1367 1069.23 79.0501 1068.81 78.877C1068.4 78.6992 1068.04 78.444 1067.73 78.1113C1067.43 77.7786 1067.2 77.3708 1067.03 76.8877C1066.87 76.4046 1066.78 75.8555 1066.78 75.2402C1066.78 74.4199 1066.92 73.7227 1067.2 73.1484C1067.48 72.5697 1067.87 72.1299 1068.39 71.8291C1068.91 71.5238 1069.53 71.3711 1070.24 71.3711C1070.93 71.3711 1071.52 71.5238 1072.03 71.8291C1072.55 72.1344 1072.95 72.5765 1073.23 73.1553C1073.52 73.7295 1073.66 74.4245 1073.66 75.2402ZM1067.96 75.2402C1067.96 75.8418 1068.04 76.3636 1068.2 76.8057C1068.36 77.2477 1068.6 77.5895 1068.94 77.8311C1069.27 78.0726 1069.7 78.1934 1070.22 78.1934C1070.74 78.1934 1071.17 78.0726 1071.5 77.8311C1071.84 77.5895 1072.09 77.2477 1072.25 76.8057C1072.4 76.3636 1072.48 75.8418 1072.48 75.2402C1072.48 74.6432 1072.4 74.1283 1072.25 73.6953C1072.09 73.2578 1071.84 72.9206 1071.51 72.6836C1071.17 72.4466 1070.74 72.3281 1070.21 72.3281C1069.44 72.3281 1068.86 72.5856 1068.5 73.1006C1068.14 73.6156 1067.96 74.3288 1067.96 75.2402ZM1079.17 71.3711C1080.06 71.3711 1080.73 71.5898 1081.19 72.0273C1081.64 72.4603 1081.87 73.1576 1081.87 74.1191V79H1080.75V74.1943C1080.75 73.57 1080.61 73.1029 1080.32 72.793C1080.04 72.4831 1079.6 72.3281 1079.01 72.3281C1078.18 72.3281 1077.6 72.5628 1077.26 73.0322C1076.93 73.5016 1076.76 74.1829 1076.76 75.0762V79H1075.62V71.5078H1076.54L1076.71 72.5879H1076.77C1076.93 72.3236 1077.13 72.1025 1077.38 71.9248C1077.62 71.7425 1077.9 71.6058 1078.21 71.5146C1078.51 71.4189 1078.83 71.3711 1079.17 71.3711ZM1086.63 78.207C1086.81 78.207 1087.01 78.1911 1087.2 78.1592C1087.4 78.1273 1087.56 78.0885 1087.68 78.043V78.9248C1087.55 78.984 1087.36 79.0342 1087.13 79.0752C1086.89 79.1162 1086.67 79.1367 1086.44 79.1367C1086.05 79.1367 1085.69 79.0684 1085.36 78.9316C1085.04 78.7904 1084.78 78.5534 1084.58 78.2207C1084.39 77.888 1084.3 77.4277 1084.3 76.8398V72.3965H1083.23V71.8428L1084.3 71.3984L1084.75 69.7715H1085.44V71.5078H1087.63V72.3965H1085.44V76.8057C1085.44 77.2751 1085.55 77.626 1085.76 77.8584C1085.98 78.0908 1086.27 78.207 1086.63 78.207ZM1090.33 68.3633V71.542C1090.33 71.7243 1090.33 71.9089 1090.32 72.0957C1090.31 72.278 1090.29 72.4466 1090.27 72.6016H1090.35C1090.5 72.3372 1090.7 72.1162 1090.93 71.9385C1091.18 71.7562 1091.45 71.6195 1091.75 71.5283C1092.06 71.4326 1092.38 71.3848 1092.73 71.3848C1093.33 71.3848 1093.83 71.4805 1094.23 71.6719C1094.64 71.8633 1094.94 72.1595 1095.14 72.5605C1095.34 72.9616 1095.45 73.4811 1095.45 74.1191V79H1094.33V74.1943C1094.33 73.57 1094.18 73.1029 1093.89 72.793C1093.61 72.4831 1093.18 72.3281 1092.59 72.3281C1092.03 72.3281 1091.59 72.4352 1091.26 72.6494C1090.93 72.859 1090.69 73.1689 1090.54 73.5791C1090.4 73.9893 1090.33 74.4906 1090.33 75.083V79H1089.2V68.3633H1090.33Z" fill="white"/>
<g filter="url(#filter2_dd_1_491)">
<rect x="1129" y="55" width="69" height="37" rx="6" fill="white"/>
</g>
<path d="M1158.22 69.0059L1155.54 79H1154.37L1152.39 72.2734C1152.33 72.082 1152.28 71.8906 1152.22 71.6992C1152.17 71.5033 1152.12 71.3187 1152.08 71.1455C1152.03 70.9678 1151.99 70.8128 1151.96 70.6807C1151.93 70.5439 1151.91 70.4414 1151.9 70.373C1151.89 70.4414 1151.87 70.5417 1151.84 70.6738C1151.82 70.806 1151.79 70.9587 1151.75 71.1318C1151.71 71.305 1151.67 71.4896 1151.61 71.6855C1151.56 71.8815 1151.51 72.0798 1151.45 72.2803L1149.52 79H1148.35L1145.7 69.0059H1146.91L1148.52 75.2744C1148.57 75.484 1148.62 75.6914 1148.67 75.8965C1148.72 76.097 1148.76 76.293 1148.8 76.4844C1148.84 76.6758 1148.87 76.8626 1148.91 77.0449C1148.94 77.2272 1148.97 77.4049 1148.99 77.5781C1149.02 77.4004 1149.05 77.2158 1149.08 77.0244C1149.12 76.8285 1149.16 76.6302 1149.2 76.4297C1149.24 76.2292 1149.29 76.0264 1149.34 75.8213C1149.4 75.6162 1149.45 75.4111 1149.51 75.2061L1151.31 69.0059H1152.51L1154.38 75.2539C1154.44 75.4681 1154.5 75.68 1154.56 75.8896C1154.61 76.0993 1154.66 76.3044 1154.7 76.5049C1154.75 76.7008 1154.79 76.89 1154.82 77.0723C1154.85 77.25 1154.89 77.4186 1154.91 77.5781C1154.95 77.3548 1154.98 77.1201 1155.03 76.874C1155.08 76.6279 1155.13 76.3704 1155.19 76.1016C1155.25 75.8327 1155.32 75.5547 1155.39 75.2676L1157 69.0059H1158.22ZM1162.51 71.3711C1163.15 71.3711 1163.69 71.5124 1164.15 71.7949C1164.61 72.0775 1164.95 72.474 1165.2 72.9844C1165.44 73.4902 1165.56 74.0827 1165.56 74.7617V75.4658H1160.38C1160.4 76.3454 1160.62 77.0153 1161.04 77.4756C1161.46 77.9359 1162.06 78.166 1162.83 78.166C1163.3 78.166 1163.72 78.1227 1164.09 78.0361C1164.45 77.9495 1164.83 77.8219 1165.22 77.6533V78.6514C1164.84 78.82 1164.47 78.943 1164.09 79.0205C1163.73 79.098 1163.29 79.1367 1162.78 79.1367C1162.06 79.1367 1161.43 78.9909 1160.9 78.6992C1160.36 78.403 1159.95 77.9701 1159.65 77.4004C1159.36 76.8307 1159.21 76.1335 1159.21 75.3086C1159.21 74.502 1159.34 73.8047 1159.61 73.2168C1159.88 72.6243 1160.27 72.1686 1160.76 71.8496C1161.26 71.5306 1161.84 71.3711 1162.51 71.3711ZM1162.5 72.3008C1161.89 72.3008 1161.41 72.499 1161.05 72.8955C1160.69 73.292 1160.47 73.8457 1160.4 74.5566H1164.37C1164.36 74.11 1164.29 73.7181 1164.16 73.3809C1164.02 73.0391 1163.82 72.7747 1163.55 72.5879C1163.27 72.3965 1162.92 72.3008 1162.5 72.3008ZM1170.37 71.3711C1171.01 71.3711 1171.56 71.5124 1172.01 71.7949C1172.47 72.0775 1172.82 72.474 1173.06 72.9844C1173.3 73.4902 1173.42 74.0827 1173.42 74.7617V75.4658H1168.24C1168.26 76.3454 1168.48 77.0153 1168.9 77.4756C1169.32 77.9359 1169.92 78.166 1170.69 78.166C1171.17 78.166 1171.58 78.1227 1171.95 78.0361C1172.31 77.9495 1172.69 77.8219 1173.08 77.6533V78.6514C1172.71 78.82 1172.33 78.943 1171.96 79.0205C1171.59 79.098 1171.15 79.1367 1170.64 79.1367C1169.92 79.1367 1169.29 78.9909 1168.76 78.6992C1168.22 78.403 1167.81 77.9701 1167.51 77.4004C1167.22 76.8307 1167.07 76.1335 1167.07 75.3086C1167.07 74.502 1167.2 73.8047 1167.47 73.2168C1167.75 72.6243 1168.13 72.1686 1168.62 71.8496C1169.12 71.5306 1169.7 71.3711 1170.37 71.3711ZM1170.36 72.3008C1169.75 72.3008 1169.27 72.499 1168.91 72.8955C1168.55 73.292 1168.33 73.8457 1168.26 74.5566H1172.23C1172.22 74.11 1172.15 73.7181 1172.02 73.3809C1171.89 73.0391 1171.68 72.7747 1171.41 72.5879C1171.14 72.3965 1170.78 72.3008 1170.36 72.3008ZM1176.47 68.3633V73.8867C1176.47 74.069 1176.47 74.2923 1176.45 74.5566C1176.44 74.8164 1176.43 75.0465 1176.42 75.2471H1176.47C1176.56 75.1286 1176.7 74.9531 1176.88 74.7207C1177.07 74.4883 1177.23 74.3014 1177.36 74.1602L1179.84 71.5078H1181.18L1178.16 74.707L1181.4 79H1180.03L1177.38 75.4521L1176.47 76.2861V79H1175.35V68.3633H1176.47Z" fill="#5E72E4"/>
<line x1="32" y1="115.5" x2="1220" y2="115.5" stroke="black" stroke-opacity="0.05"/>
<path d="M62.8638 148.033C62.8638 146.209 63.2171 144.846 63.9238 143.945C64.6348 143.039 65.6842 142.586 67.0723 142.586C67.5505 142.586 67.9271 142.627 68.2021 142.707V143.615C67.8763 143.509 67.5039 143.456 67.085 143.456C66.0905 143.456 65.3309 143.767 64.8062 144.389C64.2814 145.007 63.9937 145.98 63.9429 147.309H64.019C64.4845 146.581 65.2209 146.217 66.228 146.217C67.0617 146.217 67.7176 146.469 68.1958 146.973C68.6782 147.476 68.9194 148.16 68.9194 149.023C68.9194 149.988 68.6549 150.747 68.126 151.302C67.6012 151.852 66.8903 152.127 65.9932 152.127C65.0326 152.127 64.2708 151.767 63.708 151.048C63.1452 150.324 62.8638 149.319 62.8638 148.033ZM65.9805 151.232C66.5814 151.232 67.0469 151.044 67.377 150.667C67.7113 150.286 67.8784 149.738 67.8784 149.023C67.8784 148.409 67.724 147.927 67.415 147.576C67.1061 147.224 66.6449 147.049 66.0312 147.049C65.6504 147.049 65.3013 147.127 64.9839 147.284C64.6665 147.44 64.4126 147.656 64.2222 147.931C64.036 148.206 63.9429 148.492 63.9429 148.788C63.9429 149.224 64.0275 149.63 64.1968 150.007C64.366 150.383 64.6051 150.682 64.9141 150.902C65.2272 151.122 65.5827 151.232 65.9805 151.232ZM76.3462 147.347C76.3462 148.951 76.0923 150.149 75.5845 150.94C75.0809 151.731 74.3086 152.127 73.2676 152.127C72.2689 152.127 71.5093 151.723 70.9888 150.915C70.4683 150.102 70.208 148.913 70.208 147.347C70.208 145.731 70.4598 144.531 70.9634 143.748C71.467 142.965 72.235 142.574 73.2676 142.574C74.2747 142.574 75.0386 142.982 75.5591 143.799C76.0838 144.616 76.3462 145.798 76.3462 147.347ZM71.2744 147.347C71.2744 148.697 71.4331 149.681 71.7505 150.299C72.0679 150.912 72.5736 151.219 73.2676 151.219C73.9701 151.219 74.4779 150.908 74.791 150.286C75.1084 149.66 75.2671 148.68 75.2671 147.347C75.2671 146.014 75.1084 145.039 74.791 144.421C74.4779 143.799 73.9701 143.488 73.2676 143.488C72.5736 143.488 72.0679 143.795 71.7505 144.408C71.4331 145.018 71.2744 145.997 71.2744 147.347Z" fill="#8898AA"/>
<path d="M65.6567 196.332C66.6343 196.332 67.4023 196.575 67.9609 197.062C68.5238 197.544 68.8052 198.206 68.8052 199.048C68.8052 200.009 68.4984 200.762 67.8848 201.308C67.2754 201.854 66.4333 202.127 65.3584 202.127C64.3132 202.127 63.5155 201.96 62.9653 201.625V200.61C63.2616 200.8 63.6297 200.951 64.0698 201.061C64.5099 201.166 64.9437 201.219 65.3711 201.219C66.1159 201.219 66.6935 201.044 67.104 200.692C67.5187 200.341 67.7261 199.833 67.7261 199.169C67.7261 197.874 66.9326 197.227 65.3457 197.227C64.9437 197.227 64.4062 197.288 63.7334 197.411L63.1875 197.062L63.5366 192.72H68.1514V193.691H64.438L64.2031 196.478C64.6898 196.38 65.1743 196.332 65.6567 196.332ZM76.3462 197.347C76.3462 198.951 76.0923 200.149 75.5845 200.94C75.0809 201.731 74.3086 202.127 73.2676 202.127C72.2689 202.127 71.5093 201.723 70.9888 200.915C70.4683 200.102 70.208 198.913 70.208 197.347C70.208 195.731 70.4598 194.531 70.9634 193.748C71.467 192.965 72.235 192.574 73.2676 192.574C74.2747 192.574 75.0386 192.982 75.5591 193.799C76.0838 194.616 76.3462 195.798 76.3462 197.347ZM71.2744 197.347C71.2744 198.697 71.4331 199.681 71.7505 200.299C72.0679 200.912 72.5736 201.219 73.2676 201.219C73.9701 201.219 74.4779 200.908 74.791 200.286C75.1084 199.66 75.2671 198.68 75.2671 197.347C75.2671 196.014 75.1084 195.039 74.791 194.421C74.4779 193.799 73.9701 193.488 73.2676 193.488C72.5736 193.488 72.0679 193.795 71.7505 194.408C71.4331 195.018 71.2744 195.997 71.2744 197.347Z" fill="#8898AA"/>
<path d="M69.2939 249.867H67.9165V252H66.9072V249.867H62.394V248.947L66.7993 242.669H67.9165V248.909H69.2939V249.867ZM66.9072 248.909V245.824C66.9072 245.219 66.9284 244.535 66.9707 243.773H66.9199C66.7168 244.18 66.5264 244.516 66.3486 244.783L63.4478 248.909H66.9072ZM76.3462 247.347C76.3462 248.951 76.0923 250.149 75.5845 250.94C75.0809 251.731 74.3086 252.127 73.2676 252.127C72.2689 252.127 71.5093 251.723 70.9888 250.915C70.4683 250.102 70.208 248.913 70.208 247.347C70.208 245.731 70.4598 244.531 70.9634 243.748C71.467 242.965 72.235 242.574 73.2676 242.574C74.2747 242.574 75.0386 242.982 75.5591 243.799C76.0838 244.616 76.3462 245.798 76.3462 247.347ZM71.2744 247.347C71.2744 248.697 71.4331 249.681 71.7505 250.299C72.0679 250.912 72.5736 251.219 73.2676 251.219C73.9701 251.219 74.4779 250.908 74.791 250.286C75.1084 249.66 75.2671 248.68 75.2671 247.347C75.2671 246.014 75.1084 245.039 74.791 244.421C74.4779 243.799 73.9701 243.488 73.2676 243.488C72.5736 243.488 72.0679 243.795 71.7505 244.408C71.4331 245.018 71.2744 245.997 71.2744 247.347Z" fill="#8898AA"/>
<path d="M68.5068 294.903C68.5068 295.496 68.3397 295.98 68.0054 296.357C67.6753 296.734 67.2056 296.985 66.5962 297.112V297.163C67.341 297.256 67.8932 297.493 68.2529 297.874C68.6126 298.255 68.7925 298.754 68.7925 299.372C68.7925 300.257 68.4857 300.938 67.8721 301.416C67.2585 301.89 66.3867 302.127 65.2568 302.127C64.766 302.127 64.3153 302.089 63.9048 302.013C63.4985 301.941 63.1029 301.812 62.7178 301.625V300.623C63.1198 300.821 63.5472 300.974 64 301.08C64.457 301.181 64.8887 301.232 65.2949 301.232C66.8988 301.232 67.7007 300.604 67.7007 299.347C67.7007 298.221 66.8162 297.658 65.0474 297.658H64.1333V296.75H65.0601C65.7837 296.75 66.3571 296.592 66.7803 296.274C67.2035 295.953 67.415 295.508 67.415 294.941C67.415 294.489 67.2585 294.133 66.9453 293.875C66.6364 293.617 66.2153 293.488 65.6821 293.488C65.2759 293.488 64.8929 293.543 64.5332 293.653C64.1735 293.763 63.763 293.966 63.3018 294.262L62.7686 293.551C63.1494 293.251 63.5874 293.016 64.0825 292.847C64.5819 292.673 65.1066 292.586 65.6567 292.586C66.5581 292.586 67.2585 292.794 67.7578 293.208C68.2572 293.619 68.5068 294.184 68.5068 294.903ZM76.3462 297.347C76.3462 298.951 76.0923 300.149 75.5845 300.94C75.0809 301.731 74.3086 302.127 73.2676 302.127C72.2689 302.127 71.5093 301.723 70.9888 300.915C70.4683 300.102 70.208 298.913 70.208 297.347C70.208 295.731 70.4598 294.531 70.9634 293.748C71.467 292.965 72.235 292.574 73.2676 292.574C74.2747 292.574 75.0386 292.982 75.5591 293.799C76.0838 294.616 76.3462 295.798 76.3462 297.347ZM71.2744 297.347C71.2744 298.697 71.4331 299.681 71.7505 300.299C72.0679 300.912 72.5736 301.219 73.2676 301.219C73.9701 301.219 74.4779 300.908 74.791 300.286C75.1084 299.66 75.2671 298.68 75.2671 297.347C75.2671 296.014 75.1084 295.039 74.791 294.421C74.4779 293.799 73.9701 293.488 73.2676 293.488C72.5736 293.488 72.0679 293.795 71.7505 294.408C71.4331 295.018 71.2744 295.997 71.2744 297.347Z" fill="#8898AA"/>
<path d="M68.856 352H62.7559V351.092L65.1997 348.636C65.9445 347.882 66.4354 347.345 66.6724 347.023C66.9093 346.702 67.0871 346.389 67.2056 346.084C67.3241 345.779 67.3833 345.451 67.3833 345.1C67.3833 344.605 67.2331 344.214 66.9326 343.926C66.6322 343.634 66.2153 343.488 65.6821 343.488C65.297 343.488 64.931 343.551 64.584 343.678C64.2412 343.805 63.8582 344.036 63.4351 344.37L62.8765 343.653C63.7313 342.942 64.6623 342.586 65.6694 342.586C66.5412 342.586 67.2246 342.811 67.7197 343.259C68.2148 343.704 68.4624 344.302 68.4624 345.056C68.4624 345.644 68.2974 346.226 67.9673 346.801C67.6372 347.377 67.0194 348.105 66.1138 348.985L64.0825 350.972V351.022H68.856V352ZM76.3462 347.347C76.3462 348.951 76.0923 350.149 75.5845 350.94C75.0809 351.731 74.3086 352.127 73.2676 352.127C72.2689 352.127 71.5093 351.723 70.9888 350.915C70.4683 350.102 70.208 348.913 70.208 347.347C70.208 345.731 70.4598 344.531 70.9634 343.748C71.467 342.965 72.235 342.574 73.2676 342.574C74.2747 342.574 75.0386 342.982 75.5591 343.799C76.0838 344.616 76.3462 345.798 76.3462 347.347ZM71.2744 347.347C71.2744 348.697 71.4331 349.681 71.7505 350.299C72.0679 350.912 72.5736 351.219 73.2676 351.219C73.9701 351.219 74.4779 350.908 74.791 350.286C75.1084 349.66 75.2671 348.68 75.2671 347.347C75.2671 346.014 75.1084 345.039 74.791 344.421C74.4779 343.799 73.9701 343.488 73.2676 343.488C72.5736 343.488 72.0679 343.795 71.7505 344.408C71.4331 345.018 71.2744 345.997 71.2744 347.347Z" fill="#8898AA"/>
<path d="M66.6597 402H65.6313V395.386C65.6313 394.836 65.6483 394.315 65.6821 393.824C65.5933 393.913 65.4938 394.006 65.3838 394.104C65.2738 394.201 64.7702 394.613 63.873 395.341L63.3145 394.618L65.771 392.72H66.6597V402ZM76.3462 397.347C76.3462 398.951 76.0923 400.149 75.5845 400.94C75.0809 401.731 74.3086 402.127 73.2676 402.127C72.2689 402.127 71.5093 401.723 70.9888 400.915C70.4683 400.102 70.208 398.913 70.208 397.347C70.208 395.731 70.4598 394.531 70.9634 393.748C71.467 392.965 72.235 392.574 73.2676 392.574C74.2747 392.574 75.0386 392.982 75.5591 393.799C76.0838 394.616 76.3462 395.798 76.3462 397.347ZM71.2744 397.347C71.2744 398.697 71.4331 399.681 71.7505 400.299C72.0679 400.912 72.5736 401.219 73.2676 401.219C73.9701 401.219 74.4779 400.908 74.791 400.286C75.1084 399.66 75.2671 398.68 75.2671 397.347C75.2671 396.014 75.1084 395.039 74.791 394.421C74.4779 393.799 73.9701 393.488 73.2676 393.488C72.5736 393.488 72.0679 393.795 71.7505 394.408C71.4331 395.018 71.2744 395.997 71.2744 397.347Z" fill="#8898AA"/>
<path d="M76.3462 447.347C76.3462 448.951 76.0923 450.149 75.5845 450.94C75.0809 451.731 74.3086 452.127 73.2676 452.127C72.2689 452.127 71.5093 451.723 70.9888 450.915C70.4683 450.102 70.208 448.913 70.208 447.347C70.208 445.731 70.4598 444.531 70.9634 443.748C71.467 442.965 72.235 442.574 73.2676 442.574C74.2747 442.574 75.0386 442.982 75.5591 443.799C76.0838 444.616 76.3462 445.798 76.3462 447.347ZM71.2744 447.347C71.2744 448.697 71.4331 449.681 71.7505 450.299C72.0679 450.912 72.5736 451.219 73.2676 451.219C73.9701 451.219 74.4779 450.908 74.791 450.286C75.1084 449.66 75.2671 448.68 75.2671 447.347C75.2671 446.014 75.1084 445.039 74.791 444.421C74.4779 443.799 73.9701 443.488 73.2676 443.488C72.5736 443.488 72.0679 443.795 71.7505 444.408C71.4331 445.018 71.2744 445.997 71.2744 447.347Z" fill="#8898AA"/>
<path d="M79.8525 480L76.7041 471.773H76.6533C76.7126 472.425 76.7422 473.2 76.7422 474.097V480H75.7456V470.72H77.3706L80.3096 478.375H80.3604L83.3247 470.72H84.937V480H83.8579V474.021C83.8579 473.335 83.8875 472.59 83.9468 471.786H83.896L80.7222 480H79.8525ZM91.6084 480L91.3989 479.01H91.3481C91.0011 479.446 90.6541 479.742 90.3071 479.898C89.9644 480.051 89.5348 480.127 89.0186 480.127C88.3288 480.127 87.7871 479.949 87.3936 479.594C87.0042 479.238 86.8096 478.733 86.8096 478.077C86.8096 476.672 87.9331 475.935 90.1802 475.868L91.3608 475.83V475.398C91.3608 474.852 91.2424 474.45 91.0054 474.192C90.7726 473.93 90.3981 473.798 89.8818 473.798C89.3021 473.798 88.6462 473.976 87.9141 474.332L87.5903 473.525C87.9331 473.339 88.3076 473.193 88.7139 473.087C89.1243 472.982 89.5348 472.929 89.9453 472.929C90.7747 472.929 91.3883 473.113 91.7861 473.481C92.1882 473.849 92.3892 474.439 92.3892 475.252V480H91.6084ZM89.228 479.257C89.884 479.257 90.3981 479.077 90.7705 478.718C91.1471 478.358 91.3354 477.854 91.3354 477.207V476.579L90.2817 476.623C89.4438 476.653 88.8387 476.784 88.4663 477.017C88.0981 477.245 87.9141 477.603 87.9141 478.089C87.9141 478.47 88.0283 478.76 88.2568 478.959C88.4896 479.158 88.8133 479.257 89.228 479.257ZM93.4619 473.043H94.5918L96.1152 477.01C96.4495 477.916 96.6569 478.57 96.7373 478.972H96.7881C96.8431 478.756 96.9574 478.388 97.1309 477.867C97.3086 477.342 97.8841 475.734 98.8574 473.043H99.9873L96.9976 480.965C96.7013 481.748 96.3543 482.302 95.9565 482.628C95.563 482.958 95.0785 483.123 94.5029 483.123C94.1813 483.123 93.8639 483.087 93.5508 483.015V482.171C93.7835 482.222 94.0438 482.247 94.3315 482.247C95.0552 482.247 95.5715 481.841 95.8804 481.028L96.2676 480.038L93.4619 473.043Z" fill="#8898AA"/>
<path d="M233.475 482.444C233.077 482.444 232.764 482.387 232.535 482.272V481.352C232.836 481.437 233.149 481.479 233.475 481.479C233.894 481.479 234.211 481.352 234.427 481.098C234.647 480.844 234.757 480.478 234.757 480V470.72H235.836V479.911C235.836 480.715 235.633 481.337 235.227 481.777C234.82 482.222 234.236 482.444 233.475 482.444ZM239.137 473.043V477.556C239.137 478.123 239.266 478.546 239.524 478.826C239.782 479.105 240.186 479.245 240.736 479.245C241.464 479.245 241.995 479.046 242.33 478.648C242.668 478.25 242.837 477.601 242.837 476.699V473.043H243.891V480H243.021L242.869 479.067H242.812C242.596 479.41 242.296 479.672 241.911 479.854C241.53 480.036 241.094 480.127 240.603 480.127C239.757 480.127 239.122 479.926 238.699 479.524C238.28 479.122 238.07 478.479 238.07 477.594V473.043H239.137ZM250.893 480V475.5C250.893 474.932 250.764 474.509 250.505 474.23C250.247 473.951 249.843 473.811 249.293 473.811C248.565 473.811 248.032 474.008 247.693 474.401C247.355 474.795 247.186 475.444 247.186 476.35V480H246.132V473.043H246.989L247.16 473.995H247.211C247.427 473.652 247.729 473.388 248.119 473.202C248.508 473.011 248.942 472.916 249.42 472.916C250.258 472.916 250.888 473.119 251.312 473.525C251.735 473.927 251.946 474.573 251.946 475.461V480H250.893Z" fill="#8898AA"/>
<path d="M392.172 482.444C391.774 482.444 391.461 482.387 391.232 482.272V481.352C391.533 481.437 391.846 481.479 392.172 481.479C392.591 481.479 392.908 481.352 393.124 481.098C393.344 480.844 393.454 480.478 393.454 480V470.72H394.533V479.911C394.533 480.715 394.33 481.337 393.924 481.777C393.518 482.222 392.934 482.444 392.172 482.444ZM397.834 473.043V477.556C397.834 478.123 397.963 478.546 398.221 478.826C398.479 479.105 398.883 479.245 399.434 479.245C400.161 479.245 400.693 479.046 401.027 478.648C401.365 478.25 401.535 477.601 401.535 476.699V473.043H402.588V480H401.719L401.566 479.067H401.509C401.293 479.41 400.993 479.672 400.608 479.854C400.227 480.036 399.791 480.127 399.3 480.127C398.454 480.127 397.819 479.926 397.396 479.524C396.977 479.122 396.768 478.479 396.768 477.594V473.043H397.834ZM405.883 480H404.829V470.123H405.883V480Z" fill="#8898AA"/>
<path d="M551.775 480L550.62 477.048H546.9L545.758 480H544.666L548.335 470.682H549.243L552.893 480H551.775ZM550.284 476.077L549.205 473.202C549.065 472.838 548.921 472.391 548.773 471.862C548.68 472.269 548.547 472.715 548.373 473.202L547.281 476.077H550.284ZM555 473.043V477.556C555 478.123 555.129 478.546 555.387 478.826C555.645 479.105 556.049 479.245 556.6 479.245C557.327 479.245 557.859 479.046 558.193 478.648C558.531 478.25 558.701 477.601 558.701 476.699V473.043H559.754V480H558.885L558.732 479.067H558.675C558.459 479.41 558.159 479.672 557.774 479.854C557.393 480.036 556.957 480.127 556.466 480.127C555.62 480.127 554.985 479.926 554.562 479.524C554.143 479.122 553.934 478.479 553.934 477.594V473.043H555ZM567.689 473.043V473.709L566.4 473.862C566.519 474.01 566.625 474.205 566.718 474.446C566.811 474.683 566.857 474.951 566.857 475.252C566.857 475.933 566.625 476.477 566.159 476.883C565.694 477.29 565.055 477.493 564.242 477.493C564.035 477.493 563.84 477.476 563.658 477.442C563.21 477.679 562.985 477.977 562.985 478.337C562.985 478.527 563.064 478.669 563.22 478.762C563.377 478.851 563.646 478.896 564.026 478.896H565.258C566.011 478.896 566.589 479.054 566.991 479.372C567.397 479.689 567.6 480.15 567.6 480.755C567.6 481.526 567.291 482.112 566.673 482.514C566.056 482.92 565.154 483.123 563.969 483.123C563.059 483.123 562.357 482.954 561.862 482.615C561.371 482.277 561.125 481.799 561.125 481.181C561.125 480.757 561.261 480.391 561.532 480.083C561.803 479.774 562.183 479.564 562.674 479.454C562.497 479.374 562.346 479.249 562.224 479.08C562.105 478.91 562.046 478.714 562.046 478.489C562.046 478.235 562.114 478.013 562.249 477.823C562.384 477.632 562.598 477.448 562.89 477.271C562.53 477.122 562.236 476.871 562.008 476.515C561.784 476.16 561.671 475.753 561.671 475.296C561.671 474.535 561.9 473.949 562.357 473.538C562.814 473.123 563.461 472.916 564.299 472.916C564.663 472.916 564.991 472.958 565.283 473.043H567.689ZM562.141 481.168C562.141 481.545 562.3 481.83 562.617 482.025C562.935 482.22 563.389 482.317 563.982 482.317C564.866 482.317 565.52 482.184 565.943 481.917C566.371 481.655 566.584 481.297 566.584 480.844C566.584 480.468 566.468 480.205 566.235 480.057C566.003 479.913 565.565 479.841 564.921 479.841H563.658C563.18 479.841 562.808 479.956 562.541 480.184C562.274 480.413 562.141 480.741 562.141 481.168ZM562.712 475.271C562.712 475.758 562.85 476.126 563.125 476.375C563.4 476.625 563.783 476.75 564.274 476.75C565.302 476.75 565.816 476.251 565.816 475.252C565.816 474.207 565.296 473.684 564.255 473.684C563.76 473.684 563.379 473.817 563.112 474.084C562.846 474.351 562.712 474.746 562.712 475.271Z" fill="#8898AA"/>
<path d="M708.105 477.531C708.105 478.347 707.809 478.984 707.217 479.441C706.624 479.898 705.82 480.127 704.805 480.127C703.704 480.127 702.858 479.985 702.266 479.702V478.661C702.646 478.821 703.061 478.948 703.51 479.042C703.958 479.135 704.403 479.181 704.843 479.181C705.562 479.181 706.104 479.046 706.468 478.775C706.832 478.5 707.014 478.119 707.014 477.632C707.014 477.311 706.948 477.048 706.817 476.845C706.69 476.638 706.474 476.447 706.169 476.274C705.869 476.1 705.41 475.904 704.792 475.684C703.929 475.375 703.311 475.009 702.938 474.585C702.57 474.162 702.386 473.61 702.386 472.929C702.386 472.214 702.655 471.644 703.192 471.221C703.73 470.798 704.441 470.586 705.325 470.586C706.248 470.586 707.096 470.756 707.871 471.094L707.534 472.034C706.768 471.712 706.023 471.551 705.3 471.551C704.729 471.551 704.282 471.674 703.96 471.919C703.639 472.165 703.478 472.506 703.478 472.941C703.478 473.263 703.537 473.528 703.656 473.735C703.774 473.938 703.973 474.126 704.252 474.3C704.536 474.469 704.968 474.657 705.547 474.865C706.521 475.212 707.189 475.584 707.553 475.982C707.921 476.38 708.105 476.896 708.105 477.531ZM712.784 480.127C711.755 480.127 710.943 479.814 710.346 479.188C709.754 478.561 709.458 477.692 709.458 476.579C709.458 475.457 709.733 474.566 710.283 473.906C710.837 473.246 711.58 472.916 712.511 472.916C713.382 472.916 714.072 473.204 714.58 473.779C715.088 474.351 715.342 475.106 715.342 476.045V476.712H710.549C710.57 477.529 710.776 478.149 711.165 478.572C711.559 478.995 712.111 479.207 712.822 479.207C713.571 479.207 714.311 479.05 715.043 478.737V479.676C714.671 479.837 714.318 479.951 713.983 480.019C713.653 480.091 713.253 480.127 712.784 480.127ZM712.498 473.798C711.939 473.798 711.493 473.98 711.159 474.344C710.829 474.708 710.634 475.212 710.575 475.855H714.212C714.212 475.191 714.064 474.683 713.768 474.332C713.471 473.976 713.048 473.798 712.498 473.798ZM720.382 480.127C719.929 480.127 719.514 480.044 719.138 479.879C718.765 479.71 718.452 479.452 718.198 479.105H718.122C718.173 479.511 718.198 479.896 718.198 480.26V483.123H717.145V473.043H718.001L718.147 473.995H718.198C718.469 473.614 718.784 473.339 719.144 473.17C719.504 473.001 719.916 472.916 720.382 472.916C721.304 472.916 722.015 473.231 722.515 473.862C723.018 474.492 723.27 475.377 723.27 476.515C723.27 477.658 723.014 478.546 722.502 479.181C721.994 479.812 721.287 480.127 720.382 480.127ZM720.229 473.811C719.519 473.811 719.004 474.008 718.687 474.401C718.37 474.795 718.207 475.421 718.198 476.28V476.515C718.198 477.493 718.361 478.193 718.687 478.616C719.013 479.035 719.535 479.245 720.255 479.245C720.856 479.245 721.326 479.001 721.664 478.515C722.007 478.028 722.178 477.357 722.178 476.502C722.178 475.635 722.007 474.971 721.664 474.509C721.326 474.044 720.847 473.811 720.229 473.811Z" fill="#8898AA"/>
<path d="M868.409 475.347C868.409 476.833 868.033 478 867.279 478.851C866.53 479.702 865.487 480.127 864.15 480.127C862.783 480.127 861.727 479.71 860.982 478.876C860.242 478.039 859.872 476.858 859.872 475.334C859.872 473.824 860.244 472.654 860.989 471.824C861.734 470.991 862.792 470.574 864.163 470.574C865.496 470.574 866.537 470.997 867.286 471.843C868.035 472.69 868.409 473.858 868.409 475.347ZM861.014 475.347C861.014 476.604 861.281 477.558 861.814 478.21C862.351 478.857 863.13 479.181 864.15 479.181C865.178 479.181 865.955 478.857 866.479 478.21C867.004 477.562 867.267 476.608 867.267 475.347C867.267 474.099 867.004 473.153 866.479 472.51C865.959 471.862 865.187 471.539 864.163 471.539C863.134 471.539 862.351 471.864 861.814 472.516C861.281 473.164 861.014 474.107 861.014 475.347ZM873.106 480.127C872.099 480.127 871.319 479.818 870.764 479.2C870.214 478.578 869.939 477.7 869.939 476.566C869.939 475.402 870.218 474.503 870.777 473.868C871.34 473.233 872.139 472.916 873.176 472.916C873.511 472.916 873.845 472.952 874.179 473.024C874.514 473.096 874.776 473.181 874.966 473.278L874.643 474.173C874.41 474.08 874.156 474.004 873.881 473.944C873.606 473.881 873.362 473.849 873.151 473.849C871.737 473.849 871.031 474.75 871.031 476.553C871.031 477.408 871.202 478.064 871.545 478.521C871.892 478.978 872.404 479.207 873.081 479.207C873.661 479.207 874.255 479.082 874.865 478.832V479.765C874.399 480.006 873.813 480.127 873.106 480.127ZM878.769 479.257C878.955 479.257 879.135 479.245 879.308 479.219C879.482 479.19 879.619 479.16 879.721 479.13V479.937C879.606 479.992 879.437 480.036 879.213 480.07C878.993 480.108 878.794 480.127 878.616 480.127C877.271 480.127 876.598 479.418 876.598 478V473.862H875.601V473.354L876.598 472.916L877.042 471.431H877.651V473.043H879.67V473.862H877.651V477.956C877.651 478.375 877.751 478.697 877.95 478.921C878.149 479.145 878.422 479.257 878.769 479.257Z" fill="#8898AA"/>
<path d="M1022.35 480H1021.12L1016.05 472.211H1016C1016.07 473.125 1016.1 473.963 1016.1 474.725V480H1015.1V470.72H1016.32L1021.38 478.477H1021.43C1021.42 478.362 1021.41 477.996 1021.38 477.378C1021.35 476.756 1021.34 476.312 1021.34 476.045V470.72H1022.35V480ZM1030.75 476.515C1030.75 477.649 1030.47 478.536 1029.89 479.175C1029.32 479.81 1028.53 480.127 1027.53 480.127C1026.9 480.127 1026.35 479.981 1025.87 479.689C1025.39 479.397 1025.01 478.978 1024.75 478.432C1024.49 477.886 1024.36 477.247 1024.36 476.515C1024.36 475.381 1024.64 474.499 1025.21 473.868C1025.78 473.233 1026.56 472.916 1027.57 472.916C1028.54 472.916 1029.32 473.24 1029.89 473.887C1030.46 474.535 1030.75 475.411 1030.75 476.515ZM1025.45 476.515C1025.45 477.404 1025.63 478.081 1025.98 478.546C1026.34 479.012 1026.86 479.245 1027.55 479.245C1028.24 479.245 1028.76 479.014 1029.12 478.553C1029.48 478.087 1029.66 477.408 1029.66 476.515C1029.66 475.631 1029.48 474.96 1029.12 474.503C1028.76 474.042 1028.24 473.811 1027.54 473.811C1026.85 473.811 1026.33 474.037 1025.98 474.49C1025.63 474.943 1025.45 475.618 1025.45 476.515ZM1034.13 480L1031.49 473.043H1032.62L1034.12 477.169C1034.45 478.134 1034.65 478.76 1034.71 479.048H1034.76C1034.81 478.824 1034.96 478.36 1035.2 477.658C1035.45 476.951 1036.01 475.413 1036.87 473.043H1038L1035.36 480H1034.13Z" fill="#8898AA"/>
<path d="M1179.71 475.271C1179.71 476.803 1179.29 477.975 1178.45 478.788C1177.63 479.596 1176.43 480 1174.87 480H1172.3V470.72H1175.14C1176.58 470.72 1177.71 471.12 1178.51 471.919C1179.31 472.719 1179.71 473.836 1179.71 475.271ZM1178.56 475.309C1178.56 474.099 1178.26 473.187 1177.65 472.573C1177.04 471.96 1176.14 471.653 1174.94 471.653H1173.38V479.067H1174.69C1175.98 479.067 1176.94 478.752 1177.59 478.121C1178.24 477.486 1178.56 476.549 1178.56 475.309ZM1184.56 480.127C1183.53 480.127 1182.72 479.814 1182.12 479.188C1181.53 478.561 1181.23 477.692 1181.23 476.579C1181.23 475.457 1181.51 474.566 1182.06 473.906C1182.61 473.246 1183.36 472.916 1184.29 472.916C1185.16 472.916 1185.85 473.204 1186.36 473.779C1186.87 474.351 1187.12 475.106 1187.12 476.045V476.712H1182.33C1182.35 477.529 1182.55 478.149 1182.94 478.572C1183.34 478.995 1183.89 479.207 1184.6 479.207C1185.35 479.207 1186.09 479.05 1186.82 478.737V479.676C1186.45 479.837 1186.1 479.951 1185.76 480.019C1185.43 480.091 1185.03 480.127 1184.56 480.127ZM1184.28 473.798C1183.72 473.798 1183.27 473.98 1182.94 474.344C1182.61 474.708 1182.41 475.212 1182.35 475.855H1185.99C1185.99 475.191 1185.84 474.683 1185.54 474.332C1185.25 473.976 1184.83 473.798 1184.28 473.798ZM1191.7 480.127C1190.69 480.127 1189.91 479.818 1189.36 479.2C1188.81 478.578 1188.53 477.7 1188.53 476.566C1188.53 475.402 1188.81 474.503 1189.37 473.868C1189.94 473.233 1190.74 472.916 1191.77 472.916C1192.11 472.916 1192.44 472.952 1192.77 473.024C1193.11 473.096 1193.37 473.181 1193.56 473.278L1193.24 474.173C1193.01 474.08 1192.75 474.004 1192.48 473.944C1192.2 473.881 1191.96 473.849 1191.75 473.849C1190.33 473.849 1189.63 474.75 1189.63 476.553C1189.63 477.408 1189.8 478.064 1190.14 478.521C1190.49 478.978 1191 479.207 1191.68 479.207C1192.26 479.207 1192.85 479.082 1193.46 478.832V479.765C1192.99 480.006 1192.41 480.127 1191.7 480.127Z" fill="#8898AA"/>
<line x1="88" y1="148.5" x2="1183" y2="148.5" stroke="#525F7F" stroke-dasharray="2 3"/>
<line x1="88" y1="198.5" x2="1183" y2="198.5" stroke="#525F7F" stroke-dasharray="2 3"/>
<line x1="88" y1="248.5" x2="1183" y2="248.5" stroke="#525F7F" stroke-dasharray="2 3"/>
<line x1="88" y1="298.5" x2="1183" y2="298.5" stroke="#525F7F" stroke-dasharray="2 3"/>
<line x1="88" y1="348.5" x2="1183" y2="348.5" stroke="#525F7F" stroke-dasharray="2 3"/>
<line x1="88" y1="398.5" x2="1183" y2="398.5" stroke="#525F7F" stroke-dasharray="2 3"/>
<path d="M90.5 446.5C141.404 386.586 178.148 353.302 200.731 346.649C255.355 330.555 283.604 394.342 346.5 380.5C373.73 374.507 466.5 271.5 515 265.5C561.446 259.754 621.34 363.444 668 359.5C721.271 354.997 805.68 218 854.5 218C914 218 923.826 326 977.5 326C998 326 1078.45 311.727 1118 228.5C1125.09 213.587 1150.5 164 1181 147.5" stroke="#5E72E4" stroke-width="4" stroke-linecap="square"/>
<defs>
<filter id="filter0_d_1_491" x="0" y="0" width="1252" height="547" filterUnits="userSpaceOnUse" color-interpolation-filters="sRGB">
<feFlood flood-opacity="0" result="BackgroundImageFix"/>
<feColorMatrix in="SourceAlpha" type="matrix" values="0 0 0 0 0 0 0 0 0 0 0 0 0 0 0 0 0 0 127 0" result="hardAlpha"/>
<feOffset/>
<feGaussianBlur stdDeviation="16"/>
<feColorMatrix type="matrix" values="0 0 0 0 0.533333 0 0 0 0 0.596078 0 0 0 0 0.666667 0 0 0 0.15 0"/>
<feBlend mode="normal" in2="BackgroundImageFix" result="effect1_dropShadow_1_491"/>
<feBlend mode="normal" in="SourceGraphic" in2="effect1_dropShadow_1_491" result="shape"/>
</filter>
<filter id="filter1_dd_1_491" x="1031" y="53" width="88" height="49" filterUnits="userSpaceOnUse" color-interpolation-filters="sRGB">
<feFlood flood-opacity="0" result="BackgroundImageFix"/>
<feColorMatrix in="SourceAlpha" type="matrix" values="0 0 0 0 0 0 0 0 0 0 0 0 0 0 0 0 0 0 127 0" result="hardAlpha"/>
<feOffset dy="1"/>
<feGaussianBlur stdDeviation="1.5"/>
<feColorMatrix type="matrix" values="0 0 0 0 0 0 0 0 0 0 0 0 0 0 0 0 0 0 0.08 0"/>
<feBlend mode="normal" in2="BackgroundImageFix" result="effect1_dropShadow_1_491"/>
<feColorMatrix in="SourceAlpha" type="matrix" values="0 0 0 0 0 0 0 0 0 0 0 0 0 0 0 0 0 0 127 0" result="hardAlpha"/>
<feOffset dy="4"/>
<feGaussianBlur stdDeviation="3"/>
<feColorMatrix type="matrix" values="0 0 0 0 0.196078 0 0 0 0 0.196078 0 0 0 0 0.364706 0 0 0 0.11 0"/>
<feBlend mode="normal" in2="effect1_dropShadow_1_491" result="effect2_dropShadow_1_491"/>
<feBlend mode="normal" in="SourceGraphic" in2="effect2_dropShadow_1_491" result="shape"/>
</filter>
<filter id="filter2_dd_1_491" x="1123" y="53" width="81" height="49" filterUnits="userSpaceOnUse" color-interpolation-filters="sRGB">
<feFlood flood-opacity="0" result="BackgroundImageFix"/>
<feColorMatrix in="SourceAlpha" type="matrix" values="0 0 0 0 0 0 0 0 0 0 0 0 0 0 0 0 0 0 127 0" result="hardAlpha"/>
<feOffset dy="1"/>
<feGaussianBlur stdDeviation="1.5"/>
<feColorMatrix type="matrix" values="0 0 0 0 0 0 0 0 0 0 0 0 0 0 0 0 0 0 0.08 0"/>
<feBlend mode="normal" in2="BackgroundImageFix" result="effect1_dropShadow_1_491"/>
<feColorMatrix in="SourceAlpha" type="matrix" values="0 0 0 0 0 0 0 0 0 0 0 0 0 0 0 0 0 0 127 0" result="hardAlpha"/>
<feOffset dy="4"/>
<feGaussianBlur stdDeviation="3"/>
<feColorMatrix type="matrix" values="0 0 0 0 0.196078 0 0 0 0 0.196078 0 0 0 0 0.364706 0 0 0 0.11 0"/>
<feBlend mode="normal" in2="effect1_dropShadow_1_491" result="effect2_dropShadow_1_491"/>
<feBlend mode="normal" in="SourceGraphic" in2="effect2_dropShadow_1_491" result="shape"/>
</filter>
</defs>
</svg>
