<svg width="643" height="547" viewBox="0 0 643 547" fill="none" xmlns="http://www.w3.org/2000/svg">
<g filter="url(#filter0_d_1_560)">
<rect x="32" y="32" width="579" height="483" rx="6" fill="white"/>
</g>
<path d="M61.6689 57.0195C61.6689 57.765 61.4248 58.3363 60.9365 58.7334C60.4482 59.1305 59.7533 59.3291 58.8516 59.3291H58.1094V62H56.9424V54.8613H58.998C59.89 54.8613 60.5573 55.0436 61 55.4082C61.446 55.7728 61.6689 56.3099 61.6689 57.0195ZM58.1094 58.3477H58.7295C59.3285 58.3477 59.7679 58.2435 60.0479 58.0352C60.3278 57.8268 60.4678 57.5013 60.4678 57.0586C60.4678 56.6484 60.3424 56.3424 60.0918 56.1406C59.8411 55.9388 59.4505 55.8379 58.9199 55.8379H58.1094V58.3477ZM68.1328 62H64.0947V54.8613H68.1328V55.8477H65.2617V57.791H67.9521V58.7676H65.2617V61.0088H68.1328V62ZM71.8477 58.1816H72.6582C73.2018 58.1816 73.5957 58.0807 73.8398 57.8789C74.084 57.6771 74.2061 57.3776 74.2061 56.9805C74.2061 56.5768 74.0742 56.2871 73.8105 56.1113C73.5469 55.9355 73.1497 55.8477 72.6191 55.8477H71.8477V58.1816ZM71.8477 59.1484V62H70.6807V54.8613H72.6973C73.6185 54.8613 74.3005 55.0339 74.7432 55.3789C75.1859 55.724 75.4072 56.2448 75.4072 56.9414C75.4072 57.8301 74.945 58.4632 74.0205 58.8408L76.0371 62H74.709L73 59.1484H71.8477ZM79.2344 62H78.0771V54.8613H82.1055V55.8477H79.2344V58.0791H81.9248V59.0703H79.2344V62ZM90.7373 58.4209C90.7373 59.583 90.446 60.4863 89.8633 61.1309C89.2839 61.7754 88.4619 62.0977 87.3975 62.0977C86.32 62.0977 85.4915 61.7786 84.9121 61.1406C84.3359 60.4993 84.0479 59.5895 84.0479 58.4111C84.0479 57.2327 84.3376 56.3278 84.917 55.6963C85.4997 55.0648 86.3298 54.749 87.4072 54.749C88.4684 54.749 89.2887 55.0697 89.8682 55.7109C90.4476 56.3522 90.7373 57.2555 90.7373 58.4209ZM85.2881 58.4209C85.2881 59.2998 85.4655 59.9671 85.8203 60.4229C86.1751 60.8753 86.7008 61.1016 87.3975 61.1016C88.0908 61.1016 88.6133 60.877 88.9648 60.4277C89.3197 59.9785 89.4971 59.3096 89.4971 58.4209C89.4971 57.5452 89.3213 56.8812 88.9697 56.4287C88.6214 55.9762 88.1006 55.75 87.4072 55.75C86.7074 55.75 86.1784 55.9762 85.8203 56.4287C85.4655 56.8812 85.2881 57.5452 85.2881 58.4209ZM94.4375 58.1816H95.248C95.7917 58.1816 96.1855 58.0807 96.4297 57.8789C96.6738 57.6771 96.7959 57.3776 96.7959 56.9805C96.7959 56.5768 96.6641 56.2871 96.4004 56.1113C96.1367 55.9355 95.7396 55.8477 95.209 55.8477H94.4375V58.1816ZM94.4375 59.1484V62H93.2705V54.8613H95.2871C96.2083 54.8613 96.8903 55.0339 97.333 55.3789C97.7757 55.724 97.9971 56.2448 97.9971 56.9414C97.9971 57.8301 97.5348 58.4632 96.6104 58.8408L98.627 62H97.2988L95.5898 59.1484H94.4375ZM103.753 62L101.683 56.0381H101.644C101.699 56.9235 101.727 57.7536 101.727 58.5283V62H100.667V54.8613H102.312L104.295 60.54H104.324L106.365 54.8613H108.016V62H106.893V58.4697C106.893 58.1149 106.901 57.6527 106.917 57.083C106.937 56.5133 106.953 56.1683 106.966 56.0479H106.927L104.783 62H103.753ZM115.324 62L114.611 60.0176H111.882L111.184 62H109.953L112.624 54.832H113.894L116.564 62H115.324ZM114.304 59.0117L113.635 57.0684C113.586 56.9382 113.518 56.7331 113.43 56.4531C113.345 56.1732 113.286 55.9681 113.254 55.8379C113.166 56.2383 113.037 56.6761 112.868 57.1514L112.224 59.0117H114.304ZM124.454 62H123.023L119.513 56.3115H119.474L119.498 56.6289C119.544 57.2344 119.566 57.7878 119.566 58.2891V62H118.507V54.8613H119.923L123.424 60.5205H123.453C123.447 60.4456 123.434 60.1738 123.414 59.7051C123.395 59.2331 123.385 58.8652 123.385 58.6016V54.8613H124.454V62ZM130.376 55.7598C129.705 55.7598 129.178 55.9974 128.794 56.4727C128.41 56.9479 128.218 57.6038 128.218 58.4404C128.218 59.3161 128.402 59.9785 128.77 60.4277C129.141 60.877 129.676 61.1016 130.376 61.1016C130.679 61.1016 130.972 61.0723 131.255 61.0137C131.538 60.9518 131.833 60.8737 132.139 60.7793V61.7803C131.579 61.9919 130.944 62.0977 130.234 62.0977C129.189 62.0977 128.387 61.7819 127.827 61.1504C127.267 60.5156 126.987 59.609 126.987 58.4307C126.987 57.6885 127.122 57.0391 127.393 56.4824C127.666 55.9258 128.06 55.4993 128.574 55.2031C129.089 54.9069 129.692 54.7588 130.386 54.7588C131.115 54.7588 131.789 54.9118 132.407 55.2178L131.987 56.1895C131.746 56.0755 131.491 55.9762 131.221 55.8916C130.954 55.8037 130.672 55.7598 130.376 55.7598ZM138.715 62H134.677V54.8613H138.715V55.8477H135.844V57.791H138.534V58.7676H135.844V61.0088H138.715V62Z" fill="#8898AA"/>
<path d="M61.7939 89H59.8101V78.5659H56.2407V76.8643H65.3633V78.5659H61.7939V89ZM75.1665 84.3931C75.1665 85.8927 74.7819 87.0632 74.0127 87.9043C73.2435 88.7454 72.1727 89.166 70.8003 89.166C69.9425 89.166 69.1844 88.9723 68.5259 88.585C67.8674 88.1976 67.361 87.6414 67.0068 86.9165C66.6527 86.1916 66.4756 85.3504 66.4756 84.3931C66.4756 82.9045 66.8574 81.7424 67.6211 80.9067C68.3848 80.0711 69.4611 79.6533 70.8501 79.6533C72.1782 79.6533 73.2297 80.0822 74.0044 80.9399C74.7791 81.7922 75.1665 82.9432 75.1665 84.3931ZM68.4844 84.3931C68.4844 86.5125 69.2674 87.5723 70.8335 87.5723C72.383 87.5723 73.1577 86.5125 73.1577 84.3931C73.1577 82.2957 72.3774 81.2471 70.8169 81.2471C69.9979 81.2471 69.403 81.5182 69.0322 82.0605C68.667 82.6029 68.4844 83.3804 68.4844 84.3931ZM80.8359 87.5889C81.3118 87.5889 81.7878 87.5142 82.2637 87.3647V88.834C82.0479 88.9281 81.7684 89.0055 81.4253 89.0664C81.0877 89.1328 80.7363 89.166 80.3711 89.166C78.5228 89.166 77.5986 88.1921 77.5986 86.2441V81.2969H76.3452V80.4336L77.6899 79.7197L78.354 77.7773H79.5576V79.8193H82.1724V81.2969H79.5576V86.2109C79.5576 86.6813 79.6738 87.0299 79.9062 87.2568C80.1442 87.4782 80.4541 87.5889 80.8359 87.5889ZM89.8506 89L89.4604 87.7217H89.394C88.9513 88.2806 88.5059 88.6624 88.0576 88.8672C87.6094 89.0664 87.0339 89.166 86.3311 89.166C85.429 89.166 84.7235 88.9225 84.2144 88.4355C83.7108 87.9486 83.459 87.2596 83.459 86.3687C83.459 85.4224 83.8104 84.7085 84.5132 84.2271C85.216 83.7456 86.2868 83.4827 87.7256 83.4385L89.311 83.3887V82.8989C89.311 82.3123 89.1727 81.8752 88.896 81.5874C88.6248 81.2941 88.2015 81.1475 87.626 81.1475C87.1556 81.1475 86.7046 81.2166 86.2729 81.355C85.8413 81.4933 85.4263 81.6566 85.0278 81.8447L84.397 80.4502C84.895 80.1901 85.4401 79.9937 86.0322 79.8608C86.6243 79.7225 87.1833 79.6533 87.709 79.6533C88.8766 79.6533 89.7565 79.9079 90.3486 80.417C90.9463 80.9261 91.2451 81.7257 91.2451 82.8159V89H89.8506ZM86.9453 87.6719C87.6536 87.6719 88.2209 87.4754 88.647 87.0825C89.0786 86.6841 89.2944 86.1279 89.2944 85.4141V84.6172L88.1157 84.667C87.1971 84.7002 86.5275 84.8551 86.1069 85.1318C85.6919 85.403 85.4844 85.8208 85.4844 86.3853C85.4844 86.7948 85.6061 87.113 85.8496 87.3398C86.0931 87.5612 86.4583 87.6719 86.9453 87.6719ZM95.9185 89H93.9678V76.084H95.9185V89ZM111.275 84.3931C111.275 85.8927 110.89 87.0632 110.121 87.9043C109.352 88.7454 108.281 89.166 106.909 89.166C106.051 89.166 105.293 88.9723 104.634 88.585C103.976 88.1976 103.469 87.6414 103.115 86.9165C102.761 86.1916 102.584 85.3504 102.584 84.3931C102.584 82.9045 102.966 81.7424 103.729 80.9067C104.493 80.0711 105.569 79.6533 106.958 79.6533C108.287 79.6533 109.338 80.0822 110.113 80.9399C110.888 81.7922 111.275 82.9432 111.275 84.3931ZM104.593 84.3931C104.593 86.5125 105.376 87.5723 106.942 87.5723C108.491 87.5723 109.266 86.5125 109.266 84.3931C109.266 82.2957 108.486 81.2471 106.925 81.2471C106.106 81.2471 105.511 81.5182 105.141 82.0605C104.775 82.6029 104.593 83.3804 104.593 84.3931ZM118.181 79.6533C118.574 79.6533 118.898 79.681 119.152 79.7363L118.961 81.5542C118.685 81.4878 118.397 81.4546 118.098 81.4546C117.318 81.4546 116.684 81.7091 116.197 82.2183C115.716 82.7274 115.475 83.3887 115.475 84.2021V89H113.524V79.8193H115.052L115.309 81.438H115.409C115.713 80.8901 116.109 80.4557 116.596 80.1348C117.088 79.8138 117.617 79.6533 118.181 79.6533ZM123.958 89.166C122.813 89.166 121.919 88.751 121.277 87.9209C120.635 87.0908 120.314 85.9259 120.314 84.4263C120.314 82.9211 120.638 81.7507 121.286 80.915C121.939 80.0739 122.841 79.6533 123.992 79.6533C125.198 79.6533 126.117 80.0988 126.748 80.9897H126.847C126.753 80.3312 126.706 79.811 126.706 79.4292V76.084H128.665V89H127.138L126.797 87.7964H126.706C126.081 88.7095 125.165 89.166 123.958 89.166ZM124.481 87.5889C125.284 87.5889 125.868 87.3647 126.233 86.9165C126.598 86.4627 126.786 85.7295 126.797 84.7168V84.4429C126.797 83.2863 126.609 82.4645 126.233 81.9775C125.857 81.4906 125.267 81.2471 124.465 81.2471C123.779 81.2471 123.25 81.5265 122.879 82.0854C122.509 82.6388 122.323 83.4302 122.323 84.4595C122.323 85.4777 122.503 86.2552 122.863 86.792C123.222 87.3232 123.762 87.5889 124.481 87.5889ZM135.463 89.166C134.036 89.166 132.918 88.751 132.11 87.9209C131.307 87.0853 130.906 85.937 130.906 84.4761C130.906 82.9764 131.28 81.7977 132.027 80.9399C132.774 80.0822 133.8 79.6533 135.106 79.6533C136.318 79.6533 137.276 80.0213 137.979 80.7573C138.681 81.4933 139.033 82.506 139.033 83.7954V84.8496H132.915C132.943 85.7406 133.183 86.4268 133.637 86.9082C134.091 87.3841 134.73 87.6221 135.555 87.6221C136.097 87.6221 136.601 87.5723 137.065 87.4727C137.536 87.3675 138.039 87.196 138.576 86.958V88.5435C138.1 88.7703 137.619 88.9308 137.132 89.0249C136.645 89.119 136.089 89.166 135.463 89.166ZM135.106 81.1309C134.487 81.1309 133.989 81.3273 133.612 81.7202C133.242 82.1131 133.02 82.6859 132.948 83.4385H137.115C137.104 82.6803 136.922 82.1076 136.567 81.7202C136.213 81.3273 135.726 81.1309 135.106 81.1309ZM145.906 79.6533C146.299 79.6533 146.622 79.681 146.877 79.7363L146.686 81.5542C146.409 81.4878 146.122 81.4546 145.823 81.4546C145.042 81.4546 144.409 81.7091 143.922 82.2183C143.44 82.7274 143.2 83.3887 143.2 84.2021V89H141.249V79.8193H142.776L143.034 81.438H143.133C143.438 80.8901 143.833 80.4557 144.32 80.1348C144.813 79.8138 145.341 79.6533 145.906 79.6533ZM154.754 86.3853C154.754 87.2817 154.428 87.9707 153.775 88.4521C153.122 88.9281 152.187 89.166 150.969 89.166C149.746 89.166 148.764 88.9806 148.022 88.6099V86.9248C149.102 87.4229 150.106 87.6719 151.036 87.6719C152.236 87.6719 152.837 87.3094 152.837 86.5845C152.837 86.3521 152.771 86.1584 152.638 86.0034C152.505 85.8485 152.286 85.688 151.982 85.522C151.678 85.356 151.254 85.1678 150.712 84.9575C149.655 84.548 148.938 84.1385 148.562 83.729C148.191 83.3195 148.006 82.7882 148.006 82.1353C148.006 81.3494 148.321 80.7407 148.952 80.3091C149.589 79.8719 150.452 79.6533 151.542 79.6533C152.621 79.6533 153.642 79.8719 154.605 80.3091L153.974 81.7783C152.984 81.3688 152.151 81.1641 151.476 81.1641C150.446 81.1641 149.932 81.4574 149.932 82.0439C149.932 82.3317 150.064 82.5752 150.33 82.7744C150.601 82.9736 151.188 83.2476 152.09 83.5962C152.848 83.8895 153.399 84.1579 153.742 84.4014C154.085 84.6449 154.339 84.9271 154.505 85.248C154.671 85.5635 154.754 85.9425 154.754 86.3853Z" fill="#32325D"/>
<line x1="32" y1="115.5" x2="611" y2="115.5" stroke="black" stroke-opacity="0.05"/>
<path d="M69.5068 143.903C69.5068 144.496 69.3397 144.98 69.0054 145.357C68.6753 145.734 68.2056 145.985 67.5962 146.112V146.163C68.341 146.256 68.8932 146.493 69.2529 146.874C69.6126 147.255 69.7925 147.754 69.7925 148.372C69.7925 149.257 69.4857 149.938 68.8721 150.416C68.2585 150.89 67.3867 151.127 66.2568 151.127C65.766 151.127 65.3153 151.089 64.9048 151.013C64.4985 150.941 64.1029 150.812 63.7178 150.625V149.623C64.1198 149.821 64.5472 149.974 65 150.08C65.457 150.181 65.8887 150.232 66.2949 150.232C67.8988 150.232 68.7007 149.604 68.7007 148.347C68.7007 147.221 67.8162 146.658 66.0474 146.658H65.1333V145.75H66.0601C66.7837 145.75 67.3571 145.592 67.7803 145.274C68.2035 144.953 68.415 144.508 68.415 143.941C68.415 143.489 68.2585 143.133 67.9453 142.875C67.6364 142.617 67.2153 142.488 66.6821 142.488C66.2759 142.488 65.8929 142.543 65.5332 142.653C65.1735 142.763 64.763 142.966 64.3018 143.262L63.7686 142.551C64.1494 142.251 64.5874 142.016 65.0825 141.847C65.5819 141.673 66.1066 141.586 66.6567 141.586C67.5581 141.586 68.2585 141.794 68.7578 142.208C69.2572 142.619 69.5068 143.184 69.5068 143.903ZM77.3462 146.347C77.3462 147.951 77.0923 149.149 76.5845 149.94C76.0809 150.731 75.3086 151.127 74.2676 151.127C73.2689 151.127 72.5093 150.723 71.9888 149.915C71.4683 149.102 71.208 147.913 71.208 146.347C71.208 144.731 71.4598 143.531 71.9634 142.748C72.467 141.965 73.235 141.574 74.2676 141.574C75.2747 141.574 76.0386 141.982 76.5591 142.799C77.0838 143.616 77.3462 144.798 77.3462 146.347ZM72.2744 146.347C72.2744 147.697 72.4331 148.681 72.7505 149.299C73.0679 149.912 73.5736 150.219 74.2676 150.219C74.9701 150.219 75.4779 149.908 75.791 149.286C76.1084 148.66 76.2671 147.68 76.2671 146.347C76.2671 145.014 76.1084 144.039 75.791 143.421C75.4779 142.799 74.9701 142.488 74.2676 142.488C73.5736 142.488 73.0679 142.795 72.7505 143.408C72.4331 144.018 72.2744 144.997 72.2744 146.347Z" fill="#8898AA"/>
<path d="M69.856 251H63.7559V250.092L66.1997 247.636C66.9445 246.882 67.4354 246.345 67.6724 246.023C67.9093 245.702 68.0871 245.389 68.2056 245.084C68.3241 244.779 68.3833 244.451 68.3833 244.1C68.3833 243.605 68.2331 243.214 67.9326 242.926C67.6322 242.634 67.2153 242.488 66.6821 242.488C66.297 242.488 65.931 242.551 65.584 242.678C65.2412 242.805 64.8582 243.036 64.4351 243.37L63.8765 242.653C64.7313 241.942 65.6623 241.586 66.6694 241.586C67.5412 241.586 68.2246 241.811 68.7197 242.259C69.2148 242.704 69.4624 243.302 69.4624 244.056C69.4624 244.644 69.2974 245.226 68.9673 245.801C68.6372 246.377 68.0194 247.105 67.1138 247.985L65.0825 249.972V250.022H69.856V251ZM77.3462 246.347C77.3462 247.951 77.0923 249.149 76.5845 249.94C76.0809 250.731 75.3086 251.127 74.2676 251.127C73.2689 251.127 72.5093 250.723 71.9888 249.915C71.4683 249.102 71.208 247.913 71.208 246.347C71.208 244.731 71.4598 243.531 71.9634 242.748C72.467 241.965 73.235 241.574 74.2676 241.574C75.2747 241.574 76.0386 241.982 76.5591 242.799C77.0838 243.616 77.3462 244.798 77.3462 246.347ZM72.2744 246.347C72.2744 247.697 72.4331 248.681 72.7505 249.299C73.0679 249.912 73.5736 250.219 74.2676 250.219C74.9701 250.219 75.4779 249.908 75.791 249.286C76.1084 248.66 76.2671 247.68 76.2671 246.347C76.2671 245.014 76.1084 244.039 75.791 243.421C75.4779 242.799 74.9701 242.488 74.2676 242.488C73.5736 242.488 73.0679 242.795 72.7505 243.408C72.4331 244.018 72.2744 244.997 72.2744 246.347Z" fill="#8898AA"/>
<path d="M67.6597 351H66.6313V344.386C66.6313 343.836 66.6483 343.315 66.6821 342.824C66.5933 342.913 66.4938 343.006 66.3838 343.104C66.2738 343.201 65.7702 343.613 64.873 344.341L64.3145 343.618L66.771 341.72H67.6597V351ZM77.3462 346.347C77.3462 347.951 77.0923 349.149 76.5845 349.94C76.0809 350.731 75.3086 351.127 74.2676 351.127C73.2689 351.127 72.5093 350.723 71.9888 349.915C71.4683 349.102 71.208 347.913 71.208 346.347C71.208 344.731 71.4598 343.531 71.9634 342.748C72.467 341.965 73.235 341.574 74.2676 341.574C75.2747 341.574 76.0386 341.982 76.5591 342.799C77.0838 343.616 77.3462 344.798 77.3462 346.347ZM72.2744 346.347C72.2744 347.697 72.4331 348.681 72.7505 349.299C73.0679 349.912 73.5736 350.219 74.2676 350.219C74.9701 350.219 75.4779 349.908 75.791 349.286C76.1084 348.66 76.2671 347.68 76.2671 346.347C76.2671 345.014 76.1084 344.039 75.791 343.421C75.4779 342.799 74.9701 342.488 74.2676 342.488C73.5736 342.488 73.0679 342.795 72.7505 343.408C72.4331 344.018 72.2744 344.997 72.2744 346.347Z" fill="#8898AA"/>
<path d="M77.3462 446.347C77.3462 447.951 77.0923 449.149 76.5845 449.94C76.0809 450.731 75.3086 451.127 74.2676 451.127C73.2689 451.127 72.5093 450.723 71.9888 449.915C71.4683 449.102 71.208 447.913 71.208 446.347C71.208 444.731 71.4598 443.531 71.9634 442.748C72.467 441.965 73.235 441.574 74.2676 441.574C75.2747 441.574 76.0386 441.982 76.5591 442.799C77.0838 443.616 77.3462 444.798 77.3462 446.347ZM72.2744 446.347C72.2744 447.697 72.4331 448.681 72.7505 449.299C73.0679 449.912 73.5736 450.219 74.2676 450.219C74.9701 450.219 75.4779 449.908 75.791 449.286C76.1084 448.66 76.2671 447.68 76.2671 446.347C76.2671 445.014 76.1084 444.039 75.791 443.421C75.4779 442.799 74.9701 442.488 74.2676 442.488C73.5736 442.488 73.0679 442.795 72.7505 443.408C72.4331 444.018 72.2744 444.997 72.2744 446.347Z" fill="#8898AA"/>
<path d="M122.172 482.444C121.774 482.444 121.461 482.387 121.232 482.272V481.352C121.533 481.437 121.846 481.479 122.172 481.479C122.591 481.479 122.908 481.352 123.124 481.098C123.344 480.844 123.454 480.478 123.454 480V470.72H124.533V479.911C124.533 480.715 124.33 481.337 123.924 481.777C123.518 482.222 122.934 482.444 122.172 482.444ZM127.834 473.043V477.556C127.834 478.123 127.963 478.546 128.221 478.826C128.479 479.105 128.883 479.245 129.434 479.245C130.161 479.245 130.693 479.046 131.027 478.648C131.365 478.25 131.535 477.601 131.535 476.699V473.043H132.588V480H131.719L131.566 479.067H131.509C131.293 479.41 130.993 479.672 130.608 479.854C130.227 480.036 129.791 480.127 129.3 480.127C128.454 480.127 127.819 479.926 127.396 479.524C126.977 479.122 126.768 478.479 126.768 477.594V473.043H127.834ZM135.883 480H134.829V470.123H135.883V480Z" fill="#8898AA"/>
<path d="M207.775 480L206.62 477.048H202.9L201.758 480H200.666L204.335 470.682H205.243L208.893 480H207.775ZM206.284 476.077L205.205 473.202C205.065 472.838 204.921 472.391 204.773 471.862C204.68 472.269 204.547 472.715 204.373 473.202L203.281 476.077H206.284ZM211 473.043V477.556C211 478.123 211.129 478.546 211.387 478.826C211.645 479.105 212.049 479.245 212.6 479.245C213.327 479.245 213.859 479.046 214.193 478.648C214.531 478.25 214.701 477.601 214.701 476.699V473.043H215.754V480H214.885L214.732 479.067H214.675C214.459 479.41 214.159 479.672 213.774 479.854C213.393 480.036 212.957 480.127 212.466 480.127C211.62 480.127 210.985 479.926 210.562 479.524C210.143 479.122 209.934 478.479 209.934 477.594V473.043H211ZM223.689 473.043V473.709L222.4 473.862C222.519 474.01 222.625 474.205 222.718 474.446C222.811 474.683 222.857 474.951 222.857 475.252C222.857 475.933 222.625 476.477 222.159 476.883C221.694 477.29 221.055 477.493 220.242 477.493C220.035 477.493 219.84 477.476 219.658 477.442C219.21 477.679 218.985 477.977 218.985 478.337C218.985 478.527 219.064 478.669 219.22 478.762C219.377 478.851 219.646 478.896 220.026 478.896H221.258C222.011 478.896 222.589 479.054 222.991 479.372C223.397 479.689 223.6 480.15 223.6 480.755C223.6 481.526 223.291 482.112 222.673 482.514C222.056 482.92 221.154 483.123 219.969 483.123C219.059 483.123 218.357 482.954 217.862 482.615C217.371 482.277 217.125 481.799 217.125 481.181C217.125 480.757 217.261 480.391 217.532 480.083C217.803 479.774 218.183 479.564 218.674 479.454C218.497 479.374 218.346 479.249 218.224 479.08C218.105 478.91 218.046 478.714 218.046 478.489C218.046 478.235 218.114 478.013 218.249 477.823C218.384 477.632 218.598 477.448 218.89 477.271C218.53 477.122 218.236 476.871 218.008 476.515C217.784 476.16 217.671 475.753 217.671 475.296C217.671 474.535 217.9 473.949 218.357 473.538C218.814 473.123 219.461 472.916 220.299 472.916C220.663 472.916 220.991 472.958 221.283 473.043H223.689ZM218.141 481.168C218.141 481.545 218.3 481.83 218.617 482.025C218.935 482.22 219.389 482.317 219.982 482.317C220.866 482.317 221.52 482.184 221.943 481.917C222.371 481.655 222.584 481.297 222.584 480.844C222.584 480.468 222.468 480.205 222.235 480.057C222.003 479.913 221.565 479.841 220.921 479.841H219.658C219.18 479.841 218.808 479.956 218.541 480.184C218.274 480.413 218.141 480.741 218.141 481.168ZM218.712 475.271C218.712 475.758 218.85 476.126 219.125 476.375C219.4 476.625 219.783 476.75 220.274 476.75C221.302 476.75 221.816 476.251 221.816 475.252C221.816 474.207 221.296 473.684 220.255 473.684C219.76 473.684 219.379 473.817 219.112 474.084C218.846 474.351 218.712 474.746 218.712 475.271Z" fill="#8898AA"/>
<path d="M291.105 477.531C291.105 478.347 290.809 478.984 290.217 479.441C289.624 479.898 288.82 480.127 287.805 480.127C286.704 480.127 285.858 479.985 285.266 479.702V478.661C285.646 478.821 286.061 478.948 286.51 479.042C286.958 479.135 287.403 479.181 287.843 479.181C288.562 479.181 289.104 479.046 289.468 478.775C289.832 478.5 290.014 478.119 290.014 477.632C290.014 477.311 289.948 477.048 289.817 476.845C289.69 476.638 289.474 476.447 289.169 476.274C288.869 476.1 288.41 475.904 287.792 475.684C286.929 475.375 286.311 475.009 285.938 474.585C285.57 474.162 285.386 473.61 285.386 472.929C285.386 472.214 285.655 471.644 286.192 471.221C286.73 470.798 287.441 470.586 288.325 470.586C289.248 470.586 290.096 470.756 290.871 471.094L290.534 472.034C289.768 471.712 289.023 471.551 288.3 471.551C287.729 471.551 287.282 471.674 286.96 471.919C286.639 472.165 286.478 472.506 286.478 472.941C286.478 473.263 286.537 473.528 286.656 473.735C286.774 473.938 286.973 474.126 287.252 474.3C287.536 474.469 287.968 474.657 288.547 474.865C289.521 475.212 290.189 475.584 290.553 475.982C290.921 476.38 291.105 476.896 291.105 477.531ZM295.784 480.127C294.755 480.127 293.943 479.814 293.346 479.188C292.754 478.561 292.458 477.692 292.458 476.579C292.458 475.457 292.733 474.566 293.283 473.906C293.837 473.246 294.58 472.916 295.511 472.916C296.382 472.916 297.072 473.204 297.58 473.779C298.088 474.351 298.342 475.106 298.342 476.045V476.712H293.549C293.57 477.529 293.776 478.149 294.165 478.572C294.559 478.995 295.111 479.207 295.822 479.207C296.571 479.207 297.311 479.05 298.043 478.737V479.676C297.671 479.837 297.318 479.951 296.983 480.019C296.653 480.091 296.253 480.127 295.784 480.127ZM295.498 473.798C294.939 473.798 294.493 473.98 294.159 474.344C293.829 474.708 293.634 475.212 293.575 475.855H297.212C297.212 475.191 297.064 474.683 296.768 474.332C296.471 473.976 296.048 473.798 295.498 473.798ZM303.382 480.127C302.929 480.127 302.514 480.044 302.138 479.879C301.765 479.71 301.452 479.452 301.198 479.105H301.122C301.173 479.511 301.198 479.896 301.198 480.26V483.123H300.145V473.043H301.001L301.147 473.995H301.198C301.469 473.614 301.784 473.339 302.144 473.17C302.504 473.001 302.916 472.916 303.382 472.916C304.304 472.916 305.015 473.231 305.515 473.862C306.018 474.492 306.27 475.377 306.27 476.515C306.27 477.658 306.014 478.546 305.502 479.181C304.994 479.812 304.287 480.127 303.382 480.127ZM303.229 473.811C302.519 473.811 302.004 474.008 301.687 474.401C301.37 474.795 301.207 475.421 301.198 476.28V476.515C301.198 477.493 301.361 478.193 301.687 478.616C302.013 479.035 302.535 479.245 303.255 479.245C303.856 479.245 304.326 479.001 304.664 478.515C305.007 478.028 305.178 477.357 305.178 476.502C305.178 475.635 305.007 474.971 304.664 474.509C304.326 474.044 303.847 473.811 303.229 473.811Z" fill="#8898AA"/>
<path d="M376.409 475.347C376.409 476.833 376.033 478 375.279 478.851C374.53 479.702 373.487 480.127 372.15 480.127C370.783 480.127 369.727 479.71 368.982 478.876C368.242 478.039 367.872 476.858 367.872 475.334C367.872 473.824 368.244 472.654 368.989 471.824C369.734 470.991 370.792 470.574 372.163 470.574C373.496 470.574 374.537 470.997 375.286 471.843C376.035 472.69 376.409 473.858 376.409 475.347ZM369.014 475.347C369.014 476.604 369.281 477.558 369.814 478.21C370.351 478.857 371.13 479.181 372.15 479.181C373.178 479.181 373.955 478.857 374.479 478.21C375.004 477.562 375.267 476.608 375.267 475.347C375.267 474.099 375.004 473.153 374.479 472.51C373.959 471.862 373.187 471.539 372.163 471.539C371.134 471.539 370.351 471.864 369.814 472.516C369.281 473.164 369.014 474.107 369.014 475.347ZM381.106 480.127C380.099 480.127 379.319 479.818 378.764 479.2C378.214 478.578 377.939 477.7 377.939 476.566C377.939 475.402 378.218 474.503 378.777 473.868C379.34 473.233 380.139 472.916 381.176 472.916C381.511 472.916 381.845 472.952 382.179 473.024C382.514 473.096 382.776 473.181 382.966 473.278L382.643 474.173C382.41 474.08 382.156 474.004 381.881 473.944C381.606 473.881 381.362 473.849 381.151 473.849C379.737 473.849 379.031 474.75 379.031 476.553C379.031 477.408 379.202 478.064 379.545 478.521C379.892 478.978 380.404 479.207 381.081 479.207C381.661 479.207 382.255 479.082 382.865 478.832V479.765C382.399 480.006 381.813 480.127 381.106 480.127ZM386.769 479.257C386.955 479.257 387.135 479.245 387.308 479.219C387.482 479.19 387.619 479.16 387.721 479.13V479.937C387.606 479.992 387.437 480.036 387.213 480.07C386.993 480.108 386.794 480.127 386.616 480.127C385.271 480.127 384.598 479.418 384.598 478V473.862H383.601V473.354L384.598 472.916L385.042 471.431H385.651V473.043H387.67V473.862H385.651V477.956C385.651 478.375 385.751 478.697 385.95 478.921C386.149 479.145 386.422 479.257 386.769 479.257Z" fill="#8898AA"/>
<path d="M457.353 480H456.122L451.05 472.211H450.999C451.067 473.125 451.101 473.963 451.101 474.725V480H450.104V470.72H451.323L456.382 478.477H456.433C456.424 478.362 456.405 477.996 456.375 477.378C456.346 476.756 456.335 476.312 456.344 476.045V470.72H457.353V480ZM465.751 476.515C465.751 477.649 465.465 478.536 464.894 479.175C464.323 479.81 463.534 480.127 462.526 480.127C461.904 480.127 461.352 479.981 460.87 479.689C460.387 479.397 460.015 478.978 459.752 478.432C459.49 477.886 459.359 477.247 459.359 476.515C459.359 475.381 459.642 474.499 460.209 473.868C460.777 473.233 461.564 472.916 462.571 472.916C463.544 472.916 464.316 473.24 464.888 473.887C465.463 474.535 465.751 475.411 465.751 476.515ZM460.451 476.515C460.451 477.404 460.628 478.081 460.984 478.546C461.339 479.012 461.862 479.245 462.552 479.245C463.242 479.245 463.764 479.014 464.12 478.553C464.479 478.087 464.659 477.408 464.659 476.515C464.659 475.631 464.479 474.96 464.12 474.503C463.764 474.042 463.237 473.811 462.539 473.811C461.849 473.811 461.329 474.037 460.978 474.49C460.626 474.943 460.451 475.618 460.451 476.515ZM469.128 480L466.487 473.043H467.617L469.115 477.169C469.454 478.134 469.653 478.76 469.712 479.048H469.763C469.809 478.824 469.955 478.36 470.201 477.658C470.45 476.951 471.007 475.413 471.87 473.043H473L470.359 480H469.128Z" fill="#8898AA"/>
<path d="M540.705 475.271C540.705 476.803 540.288 477.975 539.455 478.788C538.625 479.596 537.43 480 535.868 480H533.297V470.72H536.141C537.584 470.72 538.706 471.12 539.505 471.919C540.305 472.719 540.705 473.836 540.705 475.271ZM539.562 475.309C539.562 474.099 539.258 473.187 538.648 472.573C538.043 471.96 537.142 471.653 535.944 471.653H534.376V479.067H535.69C536.977 479.067 537.944 478.752 538.591 478.121C539.239 477.486 539.562 476.549 539.562 475.309ZM545.561 480.127C544.533 480.127 543.72 479.814 543.124 479.188C542.531 478.561 542.235 477.692 542.235 476.579C542.235 475.457 542.51 474.566 543.06 473.906C543.614 473.246 544.357 472.916 545.288 472.916C546.16 472.916 546.85 473.204 547.357 473.779C547.865 474.351 548.119 475.106 548.119 476.045V476.712H543.327C543.348 477.529 543.553 478.149 543.942 478.572C544.336 478.995 544.888 479.207 545.599 479.207C546.348 479.207 547.089 479.05 547.821 478.737V479.676C547.448 479.837 547.095 479.951 546.761 480.019C546.431 480.091 546.031 480.127 545.561 480.127ZM545.275 473.798C544.717 473.798 544.27 473.98 543.936 474.344C543.606 474.708 543.411 475.212 543.352 475.855H546.989C546.989 475.191 546.841 474.683 546.545 474.332C546.249 473.976 545.826 473.798 545.275 473.798ZM552.702 480.127C551.695 480.127 550.914 479.818 550.36 479.2C549.81 478.578 549.535 477.7 549.535 476.566C549.535 475.402 549.814 474.503 550.373 473.868C550.935 473.233 551.735 472.916 552.772 472.916C553.106 472.916 553.441 472.952 553.775 473.024C554.109 473.096 554.372 473.181 554.562 473.278L554.238 474.173C554.006 474.08 553.752 474.004 553.477 473.944C553.201 473.881 552.958 473.849 552.747 473.849C551.333 473.849 550.626 474.75 550.626 476.553C550.626 477.408 550.798 478.064 551.141 478.521C551.488 478.978 552 479.207 552.677 479.207C553.257 479.207 553.851 479.082 554.46 478.832V479.765C553.995 480.006 553.409 480.127 552.702 480.127Z" fill="#8898AA"/>
<line x1="88" y1="148.5" x2="584" y2="148.5" stroke="#E9ECEF" stroke-dasharray="2 3"/>
<line x1="88" y1="248.5" x2="584" y2="248.5" stroke="#E9ECEF" stroke-dasharray="2 3"/>
<line x1="88" y1="348.5" x2="584" y2="348.5" stroke="#E9ECEF" stroke-dasharray="2 3"/>
<rect x="125" y="198" width="10" height="250" rx="5" fill="#FB6340"/>
<rect x="207" y="248" width="10" height="200" rx="5" fill="#FB6340"/>
<rect x="290" y="148" width="10" height="300" rx="5" fill="#FB6340"/>
<rect x="373" y="228" width="10" height="220" rx="5" fill="#FB6340"/>
<rect x="456" y="278" width="10" height="170" rx="5" fill="#FB6340"/>
<rect x="539" y="158" width="10" height="290" rx="5" fill="#FB6340"/>
<defs>
<filter id="filter0_d_1_560" x="0" y="0" width="643" height="547" filterUnits="userSpaceOnUse" color-interpolation-filters="sRGB">
<feFlood flood-opacity="0" result="BackgroundImageFix"/>
<feColorMatrix in="SourceAlpha" type="matrix" values="0 0 0 0 0 0 0 0 0 0 0 0 0 0 0 0 0 0 127 0" result="hardAlpha"/>
<feOffset/>
<feGaussianBlur stdDeviation="16"/>
<feColorMatrix type="matrix" values="0 0 0 0 0.533333 0 0 0 0 0.596078 0 0 0 0 0.666667 0 0 0 0.15 0"/>
<feBlend mode="normal" in2="BackgroundImageFix" result="effect1_dropShadow_1_560"/>
<feBlend mode="normal" in="SourceGraphic" in2="effect1_dropShadow_1_560" result="shape"/>
</filter>
</defs>
</svg>
